<?xml version="1.0" encoding="UTF-8"?> <svg xmlns="http://www.w3.org/2000/svg" width="419" height="614" viewBox="0 0 419 614" fill="none"><path d="M18.1625 365H12.1225V341.48H4.3625V336.44H25.9225V341.48H18.1625V365ZM55.4653 350.68C55.4653 352.893 55.1853 354.907 54.6253 356.72C54.092 358.507 53.2653 360.053 52.1453 361.36C51.052 362.667 49.6386 363.667 47.9053 364.36C46.1986 365.053 44.1853 365.4 41.8653 365.4C39.5453 365.4 37.5186 365.053 35.7853 364.36C34.0786 363.64 32.6653 362.64 31.5453 361.36C30.452 360.053 29.6253 358.493 29.0653 356.68C28.532 354.867 28.2653 352.853 28.2653 350.64C28.2653 347.68 28.7453 345.107 29.7053 342.92C30.692 340.733 32.1853 339.04 34.1853 337.84C36.212 336.613 38.7853 336 41.9053 336C44.9986 336 47.5453 336.613 49.5453 337.84C51.5453 339.04 53.0253 340.747 53.9853 342.96C54.972 345.147 55.4653 347.72 55.4653 350.68ZM34.6253 350.68C34.6253 352.68 34.8786 354.4 35.3853 355.84C35.892 357.28 36.6786 358.387 37.7453 359.16C38.812 359.933 40.1853 360.32 41.8653 360.32C43.5986 360.32 44.9853 359.933 46.0253 359.16C47.092 358.387 47.8653 357.28 48.3453 355.84C48.852 354.4 49.1053 352.68 49.1053 350.68C49.1053 347.667 48.5453 345.307 47.4253 343.6C46.3053 341.893 44.4653 341.04 41.9053 341.04C40.1986 341.04 38.812 341.427 37.7453 342.2C36.6786 342.973 35.892 344.08 35.3853 345.52C34.8786 346.96 34.6253 348.68 34.6253 350.68ZM61.3813 365V336.44H83.9813V365H77.9413V341.48H67.4213V365H61.3813ZM113.786 365H107.746V341.48H100.746C100.586 342.707 100.413 344.04 100.226 345.48C100.066 346.92 99.8793 348.387 99.6659 349.88C99.4793 351.347 99.2793 352.747 99.0659 354.08C98.8526 355.387 98.6393 356.547 98.4259 357.56C98.0793 359.213 97.6126 360.627 97.0259 361.8C96.4659 362.973 95.6793 363.867 94.6659 364.48C93.6793 365.093 92.3859 365.4 90.7859 365.4C90.2526 365.4 89.7459 365.36 89.2659 365.28C88.7859 365.2 88.3326 365.093 87.9059 364.96V360C88.2526 360.107 88.5859 360.2 88.9059 360.28C89.2526 360.36 89.6259 360.4 90.0259 360.4C90.5593 360.4 90.9993 360.227 91.3459 359.88C91.6926 359.533 91.9993 358.947 92.2659 358.12C92.5326 357.267 92.7993 356.093 93.0659 354.6C93.1993 353.96 93.3593 353.053 93.5459 351.88C93.7326 350.68 93.9459 349.28 94.1859 347.68C94.4526 346.053 94.7193 344.293 94.9859 342.4C95.2526 340.48 95.5059 338.493 95.7459 336.44H113.786V365ZM120.991 336.44H126.431V350.24C126.431 350.907 126.417 351.653 126.391 352.48C126.364 353.307 126.337 354.12 126.311 354.92C126.284 355.693 126.257 356.373 126.231 356.96C126.204 357.52 126.177 357.907 126.151 358.12H126.271L139.471 336.44H146.711V365H141.311V351.28C141.311 350.56 141.324 349.773 141.351 348.92C141.377 348.04 141.404 347.2 141.431 346.4C141.484 345.6 141.524 344.907 141.551 344.32C141.604 343.707 141.644 343.307 141.671 343.12H141.511L128.271 365H120.991V336.44ZM162.8 336.44C165.334 336.44 167.454 336.68 169.16 337.16C170.894 337.613 172.187 338.373 173.04 339.44C173.92 340.48 174.36 341.893 174.36 343.68C174.36 344.747 174.187 345.72 173.84 346.6C173.494 347.48 172.987 348.2 172.32 348.76C171.68 349.32 170.894 349.68 169.96 349.84V350.04C170.92 350.227 171.787 350.56 172.56 351.04C173.334 351.52 173.947 352.213 174.4 353.12C174.854 354.027 175.08 355.227 175.08 356.72C175.08 358.453 174.654 359.947 173.8 361.2C172.974 362.427 171.774 363.373 170.2 364.04C168.627 364.68 166.76 365 164.6 365H153.92V336.44H162.8ZM163.48 347.76C165.24 347.76 166.454 347.48 167.12 346.92C167.814 346.36 168.16 345.547 168.16 344.48C168.16 343.387 167.76 342.6 166.96 342.12C166.16 341.64 164.894 341.4 163.16 341.4H159.96V347.76H163.48ZM159.96 352.56V360H163.92C165.734 360 167 359.653 167.72 358.96C168.44 358.24 168.8 357.293 168.8 356.12C168.8 355.4 168.64 354.773 168.32 354.24C168.027 353.707 167.507 353.293 166.76 353C166.014 352.707 165 352.56 163.72 352.56H159.96ZM204.195 365H198.155V352.68H186.835V365H180.795V336.44H186.835V347.64H198.155V336.44H204.195V365ZM211.381 365V336.44H217.421V347.4H219.381C222.021 347.4 224.195 347.773 225.901 348.52C227.608 349.267 228.861 350.293 229.661 351.6C230.488 352.907 230.901 354.4 230.901 356.08C230.901 357.947 230.488 359.547 229.661 360.88C228.835 362.213 227.555 363.24 225.821 363.96C224.115 364.653 221.901 365 219.181 365H211.381ZM219.021 360.04C220.808 360.04 222.208 359.747 223.221 359.16C224.261 358.573 224.781 357.547 224.781 356.08C224.781 355.067 224.541 354.293 224.061 353.76C223.608 353.227 222.928 352.867 222.021 352.68C221.115 352.467 220.021 352.36 218.741 352.36H217.421V360.04H219.021ZM234.381 365V336.44H240.421V365H234.381ZM264.071 365H247.631V336.44H264.071V341.4H253.671V347.68H263.351V352.64H253.671V360H264.071V365ZM303.294 365H296.414L286.054 350.52V365H280.014V336.44H286.054V350.28L296.294 336.44H302.734L292.334 350.16L303.294 365ZM324.369 365L322.289 358.2H311.889L309.809 365H303.289L313.369 336.32H320.769L330.889 365H324.369ZM318.769 346.48C318.636 346.027 318.462 345.453 318.249 344.76C318.036 344.067 317.822 343.36 317.609 342.64C317.396 341.92 317.222 341.293 317.089 340.76C316.956 341.293 316.769 341.96 316.529 342.76C316.316 343.533 316.102 344.28 315.889 345C315.702 345.693 315.556 346.187 315.449 346.48L313.409 353.12H320.849L318.769 346.48ZM343.626 336.44C347.306 336.44 349.986 337.24 351.666 338.84C353.373 340.413 354.226 342.587 354.226 345.36C354.226 346.613 354.04 347.813 353.666 348.96C353.293 350.08 352.666 351.093 351.786 352C350.933 352.88 349.8 353.573 348.386 354.08C346.973 354.587 345.226 354.84 343.146 354.84H340.546V365H334.506V336.44H343.626ZM343.306 341.4H340.546V349.88H342.546C343.693 349.88 344.68 349.733 345.506 349.44C346.333 349.147 346.973 348.68 347.426 348.04C347.88 347.4 348.106 346.573 348.106 345.56C348.106 344.147 347.72 343.107 346.946 342.44C346.173 341.747 344.96 341.4 343.306 341.4ZM370.623 365H364.583V341.48H356.823V336.44H378.383V341.48H370.623V365ZM382.788 365V336.44H388.828V347.4H390.788C393.428 347.4 395.601 347.773 397.308 348.52C399.014 349.267 400.268 350.293 401.068 351.6C401.894 352.907 402.308 354.4 402.308 356.08C402.308 357.947 401.894 359.547 401.068 360.88C400.241 362.213 398.961 363.24 397.228 363.96C395.521 364.653 393.308 365 390.588 365H382.788ZM390.428 360.04C392.214 360.04 393.614 359.747 394.628 359.16C395.668 358.573 396.188 357.547 396.188 356.08C396.188 355.067 395.948 354.293 395.468 353.76C395.014 353.227 394.334 352.867 393.428 352.68C392.521 352.467 391.428 352.36 390.148 352.36H388.828V360.04H390.428ZM405.788 365V336.44H411.828V365H405.788ZM112.982 381.44C116.662 381.44 119.342 382.24 121.022 383.84C122.728 385.413 123.582 387.587 123.582 390.36C123.582 391.613 123.395 392.813 123.022 393.96C122.648 395.08 122.022 396.093 121.142 397C120.288 397.88 119.155 398.573 117.742 399.08C116.328 399.587 114.582 399.84 112.502 399.84H109.902V410H103.862V381.44H112.982ZM112.662 386.4H109.902V394.88H111.902C113.048 394.88 114.035 394.733 114.862 394.44C115.688 394.147 116.328 393.68 116.782 393.04C117.235 392.4 117.462 391.573 117.462 390.56C117.462 389.147 117.075 388.107 116.302 387.44C115.528 386.747 114.315 386.4 112.662 386.4ZM154.899 395.68C154.899 397.893 154.619 399.907 154.059 401.72C153.526 403.507 152.699 405.053 151.579 406.36C150.486 407.667 149.072 408.667 147.339 409.36C145.632 410.053 143.619 410.4 141.299 410.4C138.979 410.4 136.952 410.053 135.219 409.36C133.512 408.64 132.099 407.64 130.979 406.36C129.886 405.053 129.059 403.493 128.499 401.68C127.966 399.867 127.699 397.853 127.699 395.64C127.699 392.68 128.179 390.107 129.139 387.92C130.126 385.733 131.619 384.04 133.619 382.84C135.646 381.613 138.219 381 141.339 381C144.432 381 146.979 381.613 148.979 382.84C150.979 384.04 152.459 385.747 153.419 387.96C154.406 390.147 154.899 392.72 154.899 395.68ZM134.059 395.68C134.059 397.68 134.312 399.4 134.819 400.84C135.326 402.28 136.112 403.387 137.179 404.16C138.246 404.933 139.619 405.32 141.299 405.32C143.032 405.32 144.419 404.933 145.459 404.16C146.526 403.387 147.299 402.28 147.779 400.84C148.286 399.4 148.539 397.68 148.539 395.68C148.539 392.667 147.979 390.307 146.859 388.6C145.739 386.893 143.899 386.04 141.339 386.04C139.632 386.04 138.246 386.427 137.179 387.2C136.112 387.973 135.326 389.08 134.819 390.52C134.312 391.96 134.059 393.68 134.059 395.68ZM172.935 386.08C171.788 386.08 170.762 386.307 169.855 386.76C168.975 387.213 168.228 387.867 167.615 388.72C167.002 389.547 166.535 390.56 166.215 391.76C165.922 392.96 165.775 394.307 165.775 395.8C165.775 397.827 166.015 399.56 166.495 401C167.002 402.413 167.788 403.493 168.855 404.24C169.922 404.987 171.282 405.36 172.935 405.36C174.108 405.36 175.268 405.227 176.415 404.96C177.588 404.693 178.855 404.32 180.215 403.84V408.92C178.962 409.427 177.722 409.8 176.495 410.04C175.268 410.28 173.895 410.4 172.375 410.4C169.442 410.4 167.015 409.8 165.095 408.6C163.202 407.373 161.802 405.667 160.895 403.48C159.988 401.267 159.535 398.693 159.535 395.76C159.535 393.6 159.828 391.627 160.415 389.84C161.002 388.027 161.855 386.467 162.975 385.16C164.122 383.853 165.522 382.84 167.175 382.12C168.855 381.4 170.775 381.04 172.935 381.04C174.348 381.04 175.762 381.227 177.175 381.6C178.615 381.947 179.988 382.427 181.295 383.04L179.335 387.96C178.268 387.453 177.188 387.013 176.095 386.64C175.028 386.267 173.975 386.08 172.935 386.08ZM209.684 410H203.644V397.68H192.324V410H186.284V381.44H192.324V392.64H203.644V381.44H209.684V410ZM233.31 410H216.87V381.44H233.31V386.4H222.91V392.68H232.59V397.64H222.91V405H233.31V410ZM255.572 381.04V384.56C258.692 384.64 261.172 385.187 263.012 386.2C264.879 387.187 266.212 388.467 267.012 390.04C267.839 391.613 268.252 393.333 268.252 395.2C268.252 396.4 268.039 397.627 267.612 398.88C267.212 400.133 266.519 401.293 265.532 402.36C264.572 403.4 263.279 404.253 261.652 404.92C260.026 405.587 257.999 405.947 255.572 406V410.4H250.132V406C247.679 405.947 245.626 405.587 243.972 404.92C242.346 404.253 241.052 403.387 240.092 402.32C239.132 401.253 238.452 400.107 238.052 398.88C237.652 397.627 237.452 396.4 237.452 395.2C237.452 393.813 237.679 392.493 238.132 391.24C238.586 389.987 239.306 388.867 240.292 387.88C241.279 386.893 242.586 386.107 244.212 385.52C245.839 384.933 247.812 384.613 250.132 384.56V381.04H255.572ZM250.132 389.28C248.399 389.36 247.012 389.667 245.972 390.2C244.959 390.707 244.226 391.387 243.772 392.24C243.346 393.093 243.132 394.067 243.132 395.16C243.132 396.36 243.372 397.413 243.852 398.32C244.359 399.2 245.119 399.907 246.132 400.44C247.172 400.947 248.506 401.24 250.132 401.32V389.28ZM255.572 401.32C257.199 401.24 258.519 400.947 259.532 400.44C260.572 399.907 261.332 399.2 261.812 398.32C262.319 397.413 262.572 396.36 262.572 395.16C262.572 394.067 262.346 393.093 261.892 392.24C261.466 391.387 260.732 390.707 259.692 390.2C258.679 389.667 257.306 389.36 255.572 389.28V401.32ZM284.666 410H278.626V386.48H270.866V381.44H292.426V386.48H284.666V410ZM296.83 410V381.44H302.87V392.4H305.27C307.964 392.4 310.164 392.773 311.87 393.52C313.604 394.267 314.884 395.293 315.71 396.6C316.537 397.907 316.95 399.4 316.95 401.08C316.95 402.947 316.537 404.547 315.71 405.88C314.884 407.213 313.604 408.24 311.87 408.96C310.137 409.653 307.897 410 305.15 410H296.83ZM304.91 405.04C306.75 405.04 308.19 404.747 309.23 404.16C310.297 403.573 310.83 402.547 310.83 401.08C310.83 400.067 310.564 399.293 310.03 398.76C309.524 398.227 308.79 397.867 307.83 397.68C306.897 397.467 305.764 397.36 304.43 397.36H302.87V405.04H304.91Z" fill="#E9E4D0"></path></svg> 