<?xml version="1.0" encoding="UTF-8"?> <svg xmlns="http://www.w3.org/2000/svg" width="595" height="395" viewBox="0 0 595 395" fill="none"><path d="M164.681 437.462C181.793 447.355 209.86 447.355 227.032 437.462L581.123 232.918C598.294 223.026 598.294 206.795 581.123 196.903L436.17 113.142C419.058 103.25 390.991 103.25 373.82 113.142L19.7288 317.686C2.61643 327.578 2.61643 343.809 19.7288 353.702L164.681 437.462Z" fill="#2B52B9"></path><path d="M275.229 143.709V128.366H278.604V140.687H286.242V143.709H275.229Z" fill="white"></path><path d="M293.877 144.003C292.1 144.003 290.62 143.411 289.436 142.285C288.252 141.16 287.719 139.679 287.719 137.843C287.719 136.125 288.252 134.703 289.377 133.518C290.502 132.334 291.864 131.741 293.522 131.741C295.357 131.741 296.778 132.334 297.785 133.578C298.792 134.822 299.265 136.302 299.265 138.139C299.265 138.316 299.265 138.613 299.206 139.027H291.035C291.212 139.797 291.508 140.331 292.041 140.745C292.515 141.16 293.166 141.338 293.936 141.338C295.002 141.338 295.949 140.923 296.778 140.153L298.673 141.871C297.548 143.292 295.89 144.003 293.877 144.003ZM291.035 136.895H296.068C295.949 136.125 295.712 135.532 295.239 135.058C294.824 134.585 294.232 134.348 293.581 134.348C292.929 134.348 292.337 134.585 291.923 134.999C291.449 135.532 291.153 136.125 291.035 136.895Z" fill="white"></path><path d="M305.189 143.945C304.004 143.945 303.057 143.649 302.287 142.997C301.517 142.346 301.162 141.457 301.162 140.331C301.162 139.088 301.577 138.14 302.465 137.547C303.294 136.896 304.478 136.6 305.899 136.6C306.906 136.6 307.853 136.777 308.801 137.073V136.896C308.801 135.474 307.972 134.763 306.254 134.763C305.248 134.763 304.182 135 302.998 135.415L302.169 132.868C303.59 132.216 305.129 131.92 306.728 131.92C308.504 131.92 309.807 132.335 310.695 133.223C311.524 134.052 311.998 135.296 311.998 136.955V143.767H308.741V142.464C307.853 143.471 306.669 143.945 305.189 143.945ZM306.195 141.635C306.965 141.635 307.616 141.457 308.09 141.042C308.564 140.628 308.801 140.154 308.801 139.561V138.969C308.149 138.673 307.439 138.554 306.669 138.554C305.958 138.554 305.366 138.673 304.952 138.969C304.537 139.265 304.36 139.68 304.36 140.213C304.36 140.628 304.537 140.983 304.893 141.279C305.248 141.516 305.662 141.635 306.195 141.635Z" fill="white"></path><path d="M314.959 143.708V131.919H318.275V134.289C319.045 132.512 320.288 131.623 322.005 131.682V135.177H321.828C320.703 135.177 319.814 135.533 319.163 136.244C318.512 136.955 318.216 137.962 318.216 139.383V143.708H314.959Z" fill="white"></path><path d="M324.254 143.708V131.92H327.57V133.578C328.576 132.334 329.701 131.683 331.004 131.683C332.248 131.683 333.254 132.097 333.965 132.867C334.675 133.637 335.031 134.704 335.031 136.066V143.708H331.715V137.132C331.715 136.362 331.537 135.77 331.182 135.355C330.826 134.941 330.353 134.763 329.701 134.763C329.05 134.763 328.576 134.941 328.162 135.355C327.807 135.77 327.629 136.362 327.629 137.132V143.708H324.254Z" fill="white"></path><path d="M345.039 143.709V128.366H348.71L352.737 134.882L356.763 128.366H360.434V143.709H357.059V133.698L352.737 140.273H352.618L348.355 133.757V143.709H345.039Z" fill="white"></path><path d="M374.169 142.226C372.926 143.411 371.445 144.003 369.61 144.003C367.774 144.003 366.294 143.411 365.05 142.226C363.866 141.041 363.215 139.62 363.215 137.843C363.215 136.125 363.807 134.703 365.05 133.518C366.294 132.334 367.774 131.741 369.61 131.741C371.445 131.741 372.926 132.334 374.169 133.518C375.354 134.703 376.005 136.125 376.005 137.902C376.005 139.56 375.413 141.041 374.169 142.226ZM369.669 141.101C370.616 141.101 371.327 140.804 371.86 140.153C372.393 139.501 372.689 138.731 372.689 137.843C372.689 136.954 372.393 136.184 371.801 135.532C371.209 134.881 370.498 134.585 369.551 134.585C368.603 134.585 367.893 134.881 367.36 135.532C366.827 136.184 366.531 136.954 366.531 137.843C366.531 138.731 366.827 139.501 367.419 140.153C368.011 140.804 368.781 141.101 369.669 141.101Z" fill="white"></path><path d="M378.73 143.708V131.919H382.046V134.289C382.816 132.512 384.06 131.623 385.777 131.682V135.177H385.599C384.474 135.177 383.586 135.533 382.934 136.244C382.283 136.955 381.987 137.962 381.987 139.383V143.708H378.73Z" fill="white"></path><path d="M393.769 144.003C391.993 144.003 390.513 143.411 389.329 142.285C388.144 141.16 387.611 139.679 387.611 137.843C387.611 136.125 388.144 134.703 389.269 133.518C390.394 132.334 391.756 131.741 393.414 131.741C395.25 131.741 396.671 132.334 397.677 133.578C398.684 134.822 399.158 136.302 399.158 138.139C399.158 138.316 399.158 138.613 399.099 139.027H390.927C391.105 139.797 391.401 140.331 391.934 140.745C392.408 141.16 393.059 141.338 393.829 141.338C394.894 141.338 395.842 140.923 396.671 140.153L398.566 141.871C397.441 143.292 395.783 144.003 393.769 144.003ZM390.927 136.895H395.96C395.842 136.125 395.605 135.532 395.131 135.058C394.717 134.585 394.125 134.348 393.473 134.348C392.822 134.348 392.23 134.585 391.815 134.999C391.342 135.532 391.046 136.125 390.927 136.895Z" fill="white"></path><path d="M587.455 188.49L577.863 190.444C576.856 189.734 575.79 189.023 574.606 188.371L429.654 104.611C412.542 94.7183 384.475 94.7183 367.303 104.611L19.3705 305.6L0.363281 309.51V327.162C0.363281 333.678 4.62659 340.194 13.2124 345.17L158.224 428.931C175.336 438.823 203.403 438.823 220.575 428.931L574.665 224.387C583.784 219.115 588.047 212.125 587.455 205.194V188.49Z" fill="#171819"></path><path d="M158.165 409.858C175.278 419.75 203.345 419.75 220.516 409.858L574.607 205.314C591.779 195.421 591.779 179.19 574.607 169.298L429.655 85.5375C412.542 75.645 384.476 75.645 367.304 85.5375L13.2132 290.081C-3.8992 299.974 -3.8992 316.205 13.2132 326.097L158.165 409.858ZM23.1017 296.953L379.146 91.2835C390.278 84.8267 408.516 84.8267 419.707 91.2835L441.616 103.96C440.787 104.256 439.958 104.671 439.188 105.086L434.806 107.633C428.648 111.187 428.648 117.051 434.806 120.606L514.092 166.395C520.25 169.95 530.375 169.95 536.533 166.395L540.915 163.848C541.685 163.434 542.336 162.96 542.869 162.427L564.778 175.103C575.91 181.56 575.91 192.104 564.778 198.502L208.733 404.171C197.601 410.628 179.363 410.628 168.172 404.171L23.1017 320.351C11.9105 313.894 11.9105 303.35 23.1017 296.953Z" fill="#303030"></path><path d="M434.744 107.574L439.126 105.027C439.896 104.612 440.665 104.198 441.554 103.901L419.645 91.284C408.513 84.8272 390.276 84.8272 379.084 91.284L23.099 296.953C11.967 303.41 11.967 313.954 23.099 320.352L168.11 404.112C179.242 410.569 197.48 410.569 208.671 404.112L564.716 198.443C575.848 191.986 575.848 181.442 564.716 175.044L542.807 162.368C542.274 162.842 541.564 163.316 540.853 163.79L536.471 166.337C530.313 169.891 520.188 169.891 514.03 166.337L434.744 120.547C428.586 116.993 428.586 111.187 434.744 107.574Z" fill="#B1C6F8"></path><path d="M489.221 142.524C490.228 143.117 491.945 142.998 493.07 142.347C494.195 141.695 494.314 140.688 493.366 140.096L471.635 127.538C470.629 126.945 468.912 127.064 467.786 127.715C466.661 128.367 466.543 129.374 467.49 129.966L489.221 142.524Z" fill="black"></path><path d="M500.886 149.275C501.893 149.868 503.61 149.749 504.735 149.098C505.86 148.446 505.978 147.439 505.031 146.847L504.379 146.432C503.373 145.84 501.656 145.958 500.531 146.61C499.406 147.261 499.287 148.268 500.235 148.861L500.886 149.275Z" fill="black"></path><path d="M398.33 17.0596L275.938 90.9275L290.03 269.881L414.199 197.672L398.33 17.0596Z" fill="#00E07B"></path><path d="M398.33 17.0601L364.697 15.4015L356.94 0L232.416 67.7666L264.036 69.8399L275.937 90.9281L398.33 17.0601Z" fill="#E9F1FA"></path><path d="M264.037 69.8398V226.876L290.031 269.882L275.939 90.928L264.037 69.8398Z" fill="#00F789"></path><path d="M232.418 67.7666L218.207 231.733L264.037 226.876V69.8399L232.418 67.7666Z" fill="#00E07B"></path><path d="M218.207 231.733L290.032 269.882L264.037 226.876L218.207 231.733Z" fill="#00E07B"></path><path d="M364.697 37.3771L398.33 17.059L364.697 15.4004V37.3771Z" fill="#C4D9EF"></path><path d="M348.947 160.65C345.454 161.775 342.493 161.361 339.532 159.406C326.506 150.639 320.94 114.682 319.874 101.591C319.696 99.4586 317.861 97.8592 315.67 98.0369C313.538 98.2146 311.939 100.051 312.117 102.243C312.295 104.316 316.38 153.245 335.151 165.922C338.289 168.054 341.664 169.121 345.217 169.121C347.171 169.121 349.125 168.825 351.197 168.173C383.35 158.044 386.251 100.88 385.126 67.7671C385.067 65.6938 383.349 64.0352 381.218 64.0352C381.159 64.0352 381.159 64.0352 381.099 64.0352C378.968 64.0944 377.251 65.9307 377.369 68.0632C378.257 92.8241 377.191 151.764 348.947 160.65Z" fill="#E9EEF2"></path><path d="M192.155 240.382L139.219 270.948L192.155 301.573L245.091 270.948L192.155 240.382Z" fill="#8397B5"></path><path d="M236.03 272.073V214.555L219.155 224.329L208.496 230.489L186.232 243.344V300.862L208.496 288.008L219.155 281.847L236.03 272.073Z" fill="#E1EAF5"></path><path d="M186.231 300.862V243.344L163.967 230.43L153.309 224.329L136.434 214.555V272.073L153.309 281.847L163.967 287.949L186.231 300.862Z" fill="#EEF2FA"></path><path d="M186.231 182.152L133.295 212.718L186.231 243.344L239.167 212.718L186.231 182.152Z" fill="white"></path><path d="M153.311 224.328V281.847L163.969 287.948V230.429L153.311 224.328Z" fill="#00F789"></path><path d="M208.494 230.489V288.007L219.152 281.847V224.328L208.494 230.489Z" fill="#00E07B"></path><path d="M239.168 224.803V212.719L221.464 222.967L210.806 229.127L186.232 243.344V255.369L210.806 241.152L221.464 234.992L239.168 224.803Z" fill="#E1EAF5"></path><path d="M186.231 255.369V243.344L161.362 228.95L150.703 222.789L133.295 212.719V224.803L150.703 234.814L161.362 240.975L186.231 255.369Z" fill="#EEF2FA"></path><path d="M150.703 222.79V234.815L161.361 240.976V228.951L150.703 222.79Z" fill="#00F789"></path><path d="M210.809 229.125V241.151L221.467 234.99V222.965L210.809 229.125Z" fill="#00E07B"></path><path d="M204.409 192.637L150.703 222.788L161.361 228.949L215.304 198.916L204.409 192.637Z" fill="#00F789"></path><path d="M167.4 192.992L156.742 199.212L210.803 229.304L221.462 223.144L167.4 192.992Z" fill="#00F789"></path><path d="M163.848 174.984L157.69 178.539C157.512 178.657 157.275 178.835 157.157 179.012C156.328 180.019 156.328 181.797 157.157 183.87L163.315 180.316C162.545 178.183 162.545 176.465 163.315 175.458C163.493 175.281 163.67 175.103 163.848 174.984Z" fill="#00E07B"></path><path d="M182.914 199.508C168.051 190.267 164.202 182.626 163.314 180.315L157.156 183.87C158.044 186.121 161.893 193.762 176.756 203.062L182.914 199.508Z" fill="#00E07B"></path><path d="M183.271 211.77L189.43 208.216C189.607 208.097 189.726 207.979 189.844 207.801C190.259 207.149 190.259 206.024 189.785 204.898L183.627 208.453C184.1 209.578 184.1 210.704 183.686 211.355C183.568 211.533 183.449 211.651 183.271 211.77Z" fill="#000100"></path><path d="M161.362 173.564C171.843 180.495 182.442 205.552 183.626 208.395L189.784 204.841C188.6 201.997 178.001 176.881 167.52 170.01C167.283 169.891 167.046 169.714 166.869 169.595C164.382 168.173 162.072 167.937 160.355 168.944L154.197 172.498C155.914 171.491 158.224 171.728 160.711 173.149C160.888 173.327 161.125 173.445 161.362 173.564Z" fill="#00E07B"></path><path d="M179.895 210.646C180.428 210.942 180.961 211.297 181.553 211.594C182.442 212.068 183.271 212.008 183.685 211.357C184.1 210.705 184.1 209.58 183.626 208.454C182.442 205.611 171.843 180.494 161.362 173.623C161.125 173.504 160.888 173.327 160.711 173.208C157.572 171.431 154.671 171.55 153.013 173.623C151.237 175.815 151.177 179.784 152.835 184.226C154.789 189.439 160.947 199.746 179.895 210.646ZM157.158 179.014C157.928 178.066 159.23 178.007 160.651 178.836C160.77 178.895 160.829 178.954 160.947 179.014C166.217 182.508 172.731 194.652 176.698 203.064C161.836 193.823 157.987 186.181 157.099 183.871C156.329 181.798 156.388 180.021 157.158 179.014Z" fill="#00F789"></path><path d="M194.166 203.242C191.62 204.723 189.31 206.619 187.475 208.396L194.639 204.249C196.475 202.472 198.843 200.577 201.33 199.096L194.166 203.242Z" fill="#00E07B"></path><path d="M216.311 209.402C214.001 210.764 208.258 211.475 194.698 204.248L187.533 208.395C201.093 215.621 206.837 214.911 209.146 213.548L216.311 209.402Z" fill="#00E07B"></path><path d="M213.172 220.597L220.337 216.45C221.343 215.858 222.054 215.147 222.527 214.436C224.541 211.533 224.481 206.854 222.409 201.878L215.244 206.024C217.317 211 217.376 215.68 215.363 218.583C214.889 219.293 214.238 220.004 213.172 220.597Z" fill="#00E07B"></path><path d="M206.365 195.184C209.977 197.257 213.352 201.344 215.306 205.965L222.471 201.818C220.517 197.138 217.141 193.11 213.529 191.037C213.293 190.859 212.997 190.741 212.76 190.622C207.253 187.898 201.687 189.438 197.128 192.103L189.963 196.25C194.522 193.584 200.088 192.044 205.595 194.769C205.832 194.887 206.069 195.065 206.365 195.184Z" fill="#00E07B"></path><path d="M181.849 211.829C182.5 212.244 183.151 212.599 183.803 212.955C205.83 225.69 213.053 222.018 215.422 218.582C217.435 215.68 217.376 211 215.304 206.024C213.35 201.344 209.974 197.316 206.363 195.243C206.126 195.065 205.83 194.947 205.593 194.828C193.395 188.786 180.901 203.714 179.539 205.432C179.006 206.142 178.947 207.386 179.421 208.749C179.895 209.993 180.842 211.178 181.849 211.829ZM205.948 201.64C206.066 201.7 206.185 201.759 206.303 201.818C207.961 202.766 209.501 204.602 210.389 206.735C211.336 208.986 211.336 211.059 210.389 212.422C209.382 213.902 204.823 217.634 187.474 208.393C192.151 203.891 199.79 198.56 205.948 201.64Z" fill="#00F789"></path><path d="M480.697 227.765L465.302 219.887L339.594 261.648L342.969 267.75L378.792 286.706L480.697 227.765Z" fill="#8397B5"></path><path d="M459.735 94.542L368.252 149.691L378.792 283.388L471.519 229.424L459.735 94.542Z" fill="#71D2D5"></path><path d="M459.735 94.5425L434.57 93.2985L428.826 81.8066L335.744 132.395L359.429 133.935L368.252 149.692L459.735 94.5425Z" fill="#E9F1FA"></path><path d="M359.428 133.934V251.281L378.79 283.387L368.25 149.691L359.428 133.934Z" fill="#3BAFAE"></path><path d="M335.742 132.393L325.143 254.894L359.427 251.28V133.933L335.742 132.393Z" fill="#71D2D5"></path><path d="M325.143 254.895L378.789 283.387L359.427 251.281L325.143 254.895Z" fill="#3BAFAE"></path><path d="M434.57 93.2969V109.705L459.736 94.5408L434.57 93.2969Z" fill="#C4D9EF"></path><path d="M422.784 201.819C420.178 202.649 417.928 202.352 415.796 200.872C406.086 194.296 401.882 167.462 401.112 157.688C400.993 156.089 399.572 154.904 397.973 155.022C396.375 155.141 395.191 156.563 395.309 158.162C395.427 159.702 398.506 196.251 412.54 205.729C414.908 207.328 417.395 208.098 420.06 208.098C421.54 208.098 423.02 207.861 424.501 207.388C448.541 199.864 450.673 157.155 449.844 132.335C449.784 130.795 448.482 129.551 446.942 129.551C446.883 129.551 446.883 129.551 446.824 129.551C445.225 129.61 443.982 130.972 444.041 132.572C444.751 151.113 443.922 195.185 422.784 201.819Z" fill="#F3FAFF"></path><path d="M290.444 260.286L205.355 309.452L267.943 346.001L353.031 296.835L290.444 260.286Z" fill="#8397B5"></path><path d="M205.891 259.634V312.117L261.55 344.283V291.74L205.891 259.634Z" fill="#E1E2E5"></path><path d="M205.891 259.634V271.007L261.55 303.113V291.74L205.891 259.634Z" fill="#C6C6C6"></path><path d="M261.549 291.739V344.282L342.966 297.248V244.765L261.549 291.739Z" fill="#C8C9CC"></path><path d="M198.488 247.608V262.003L260.78 298.019V283.624L198.488 247.608Z" fill="#E1E2E5"></path><path d="M260.779 283.625V298.019L345.867 248.853V234.518L260.779 283.625Z" fill="#C8C9CC"></path><path d="M283.577 198.502L198.488 247.609L260.78 283.625L345.868 234.518L283.577 198.502Z" fill="#EDEDED"></path><path d="M288.491 205.669L222.469 243.817L270.845 271.777L336.868 233.629L288.491 205.669Z" fill="#BCBCBC"></path><path d="M222.768 203.832V245.949L267.414 271.717V229.6L222.768 203.832Z" fill="#B1C6F8"></path><path d="M222.768 203.832V212.954L267.414 238.722V229.6L222.768 203.832Z" fill="#6F7E90"></path><path d="M267.414 229.6V271.717L332.666 233.983V191.866L267.414 229.6Z" fill="#8397B5"></path><path d="M267.352 229.601V238.723L332.663 201.345V192.223L267.352 229.601Z" fill="#6F7E90"></path><path d="M216.844 194.178V205.729L266.819 234.577V223.085L216.844 194.178Z" fill="#B1C6F8"></path><path d="M266.822 223.084V234.576L335.035 195.184V183.633L266.822 223.084Z" fill="#8397B5"></path><path d="M285.057 154.783L216.844 194.176L266.819 223.083L335.032 183.631L285.057 154.783Z" fill="#BED5FF"></path><path d="M147.032 314.31C153.723 310.459 153.723 304.18 147.032 300.271C140.341 296.42 129.446 296.42 122.755 300.271C116.064 304.121 116.064 310.4 122.755 314.31C129.446 318.16 140.341 318.16 147.032 314.31Z" fill="#8397B5"></path><path d="M144.545 312.533C147.92 310.578 149.578 308.031 149.578 305.425V302.818H148.926C148.157 301.219 146.676 299.738 144.545 298.494C137.854 294.644 126.958 294.644 120.267 298.494C118.136 299.738 116.655 301.219 115.886 302.818H115.234V305.484C115.234 308.031 116.892 310.578 120.267 312.474C126.958 316.384 137.794 316.384 144.545 312.533Z" fill="#FFF500"></path><path d="M144.547 309.806C151.238 305.955 151.238 299.676 144.547 295.767C137.856 291.916 126.961 291.916 120.27 295.767C113.579 299.617 113.579 305.896 120.27 309.806C126.961 313.656 137.797 313.656 144.547 309.806Z" fill="#FFE311"></path><path d="M132.41 311.524C136.199 311.524 140.048 310.695 142.95 309.036C145.792 307.378 147.391 305.186 147.391 302.817C147.391 300.447 145.792 298.196 142.95 296.597C137.147 293.22 127.732 293.22 121.929 296.597C119.087 298.255 117.488 300.447 117.488 302.817C117.488 305.186 119.087 307.437 121.929 309.036C124.771 310.695 128.561 311.524 132.41 311.524ZM118.021 302.757C118.021 300.625 119.501 298.552 122.166 297.011C125.008 295.412 128.679 294.583 132.351 294.583C136.022 294.583 139.752 295.412 142.535 297.011C145.2 298.552 146.68 300.566 146.68 302.757C146.68 304.89 145.2 306.963 142.535 308.503C136.91 311.761 127.732 311.761 122.107 308.503C119.501 306.963 118.021 304.949 118.021 302.757Z" fill="#E1FF69"></path><path d="M144.13 308.562C147.506 306.607 149.164 304.06 149.164 301.453V298.847H148.512C147.742 297.247 146.262 295.767 144.13 294.523C137.439 290.672 126.544 290.672 119.853 294.523C117.722 295.767 116.241 297.247 115.472 298.847H114.82V301.512C114.82 304.06 116.478 306.607 119.853 308.502C126.544 312.412 137.38 312.412 144.13 308.562Z" fill="#FFF500"></path><path d="M144.131 305.839C150.822 301.989 150.822 295.709 144.131 291.8C137.44 287.95 126.545 287.95 119.854 291.8C113.163 295.65 113.163 301.929 119.854 305.839C126.545 309.689 137.381 309.689 144.131 305.839Z" fill="#FFE311"></path><path d="M131.994 307.557C135.783 307.557 139.632 306.727 142.534 305.069C145.376 303.41 146.975 301.218 146.975 298.849C146.975 296.479 145.376 294.228 142.534 292.629C136.731 289.253 127.316 289.253 121.513 292.629C118.671 294.288 117.072 296.479 117.072 298.849C117.072 301.218 118.671 303.469 121.513 305.069C124.355 306.727 128.145 307.557 131.994 307.557ZM117.605 298.849C117.605 296.716 119.086 294.643 121.75 293.103C124.592 291.504 128.263 290.674 131.935 290.674C135.606 290.674 139.336 291.504 142.119 293.103C144.784 294.643 146.264 296.657 146.264 298.849C146.264 300.981 144.784 303.055 142.119 304.595C136.494 307.853 127.316 307.853 121.691 304.595C119.086 302.995 117.605 300.981 117.605 298.849Z" fill="#E1FF69"></path><path d="M144.545 304.418C147.92 302.463 149.578 299.916 149.578 297.31V294.703H148.926C148.157 293.104 146.676 291.623 144.545 290.379C137.854 286.529 126.958 286.529 120.267 290.379C118.136 291.623 116.655 293.104 115.886 294.703H115.234V297.369C115.234 299.916 116.892 302.463 120.267 304.359C126.958 308.269 137.794 308.269 144.545 304.418Z" fill="#FFF500"></path><path d="M144.547 301.69C151.238 297.84 151.238 291.561 144.547 287.651C137.856 283.801 126.961 283.801 120.27 287.651C113.579 291.502 113.579 297.781 120.27 301.69C126.961 305.541 137.797 305.541 144.547 301.69Z" fill="#FFE311"></path><path d="M132.41 303.409C136.199 303.409 140.048 302.58 142.95 300.921C145.792 299.263 147.391 297.071 147.391 294.701C147.391 292.332 145.792 290.081 142.95 288.482C137.147 285.105 127.732 285.105 121.929 288.482C119.087 290.14 117.488 292.332 117.488 294.701C117.488 297.071 119.087 299.322 121.929 300.921C124.771 302.58 128.561 303.409 132.41 303.409ZM118.021 294.642C118.021 292.51 119.501 290.436 122.166 288.896C125.008 287.297 128.679 286.468 132.351 286.468C136.022 286.468 139.752 287.297 142.535 288.896C145.2 290.436 146.68 292.45 146.68 294.642C146.68 296.775 145.2 298.848 142.535 300.388C136.91 303.646 127.732 303.646 122.107 300.388C119.501 298.848 118.021 296.834 118.021 294.642Z" fill="#E1FF69"></path><path d="M165.98 327.993C173.559 326.453 175.513 320.47 170.362 314.665C165.21 308.86 154.907 305.483 147.328 307.023C139.749 308.623 137.795 314.546 142.946 320.352C148.098 326.097 158.401 329.533 165.98 327.993Z" fill="#8397B5"></path><path d="M165.743 326.69C169.592 325.92 171.96 323.965 172.73 321.536L173.559 319.048L172.967 318.87C172.73 317.153 171.842 315.257 170.184 313.421C165.032 307.616 154.729 304.239 147.15 305.779C144.722 306.312 142.887 307.26 141.643 308.504L141.051 308.326L140.222 310.874C139.393 313.302 140.222 316.205 142.768 319.107C147.801 324.853 158.164 328.23 165.743 326.69Z" fill="#FFF500"></path><path d="M166.572 324.084C174.151 322.485 176.105 316.561 170.953 310.756C165.802 304.951 155.499 301.574 147.92 303.114C140.341 304.714 138.387 310.637 143.538 316.442C148.69 322.248 158.992 325.683 166.572 324.084Z" fill="#FFE311"></path><path d="M161.894 323.196C163.078 323.196 164.203 323.078 165.269 322.841C168.526 322.189 170.717 320.59 171.427 318.279C172.197 316.029 171.368 313.422 169.177 310.934C164.736 305.958 155.795 302.997 149.223 304.359C145.966 305.011 143.775 306.669 143.065 308.92C142.295 311.171 143.124 313.778 145.315 316.265C149.045 320.412 155.914 323.196 161.894 323.196ZM143.597 309.098C144.249 307.084 146.321 305.603 149.341 304.951C150.407 304.714 151.473 304.655 152.657 304.655C158.46 304.655 165.151 307.321 168.763 311.408C170.835 313.718 171.546 316.088 170.894 318.161C170.243 320.175 168.171 321.656 165.151 322.308C158.756 323.611 150.111 320.767 145.788 315.91C143.716 313.541 142.946 311.171 143.597 309.098Z" fill="#E1FF69"></path></svg> 