<?xml version="1.0" encoding="UTF-8"?> <svg xmlns="http://www.w3.org/2000/svg" xmlns:xlink="http://www.w3.org/1999/xlink" xml:space="preserve" width="984" height="984" viewBox="0 0 984 984"><rect width="984" height="984" fill="#ffffff" x="0" y="0"></rect><g fill="#000000"> <g transform="translate(264,48) scale(4.12)"><rect width="6" height="6"></rect></g> <g transform="translate(336,48) scale(4.12)"><rect width="6" height="6"></rect></g> <g transform="translate(384,48) scale(4.12)"><rect width="6" height="6"></rect></g> <g transform="translate(432,48) scale(4.12)"><rect width="6" height="6"></rect></g> <g transform="translate(456,48) scale(4.12)"><rect width="6" height="6"></rect></g> <g transform="translate(552,48) scale(4.12)"><rect width="6" height="6"></rect></g> <g transform="translate(576,48) scale(4.12)"><rect width="6" height="6"></rect></g> <g transform="translate(624,48) scale(4.12)"><rect width="6" height="6"></rect></g> <g transform="translate(696,48) scale(4.12)"><rect width="6" height="6"></rect></g> <g transform="translate(264,72) scale(4.12)"><rect width="6" height="6"></rect></g> <g transform="translate(288,72) scale(4.12)"><rect width="6" height="6"></rect></g> <g transform="translate(336,72) scale(4.12)"><rect width="6" height="6"></rect></g> <g transform="translate(384,72) scale(4.12)"><rect width="6" height="6"></rect></g> <g transform="translate(408,72) scale(4.12)"><rect width="6" height="6"></rect></g> <g transform="translate(456,72) scale(4.12)"><rect width="6" height="6"></rect></g> <g transform="translate(528,72) scale(4.12)"><rect width="6" height="6"></rect></g> <g transform="translate(552,72) scale(4.12)"><rect width="6" height="6"></rect></g> <g transform="translate(576,72) scale(4.12)"><rect width="6" height="6"></rect></g> <g transform="translate(624,72) scale(4.12)"><rect width="6" height="6"></rect></g> <g transform="translate(720,72) scale(4.12)"><rect width="6" height="6"></rect></g> <g transform="translate(240,96) scale(4.12)"><rect width="6" height="6"></rect></g> <g transform="translate(288,96) scale(4.12)"><rect width="6" height="6"></rect></g> <g transform="translate(360,96) scale(4.12)"><rect width="6" height="6"></rect></g> <g transform="translate(384,96) scale(4.12)"><rect width="6" height="6"></rect></g> <g transform="translate(456,96) scale(4.12)"><rect width="6" height="6"></rect></g> <g transform="translate(480,96) scale(4.12)"><rect width="6" height="6"></rect></g> <g transform="translate(552,96) scale(4.12)"><rect width="6" height="6"></rect></g> <g transform="translate(576,96) scale(4.12)"><rect width="6" height="6"></rect></g> <g transform="translate(600,96) scale(4.12)"><rect width="6" height="6"></rect></g> <g transform="translate(624,96) scale(4.12)"><rect width="6" height="6"></rect></g> <g transform="translate(696,96) scale(4.12)"><rect width="6" height="6"></rect></g> <g transform="translate(240,120) scale(4.12)"><rect width="6" height="6"></rect></g> <g transform="translate(264,120) scale(4.12)"><rect width="6" height="6"></rect></g> <g transform="translate(312,120) scale(4.12)"><rect width="6" height="6"></rect></g> <g transform="translate(384,120) scale(4.12)"><rect width="6" height="6"></rect></g> <g transform="translate(432,120) scale(4.12)"><rect width="6" height="6"></rect></g> <g transform="translate(528,120) scale(4.12)"><rect width="6" height="6"></rect></g> <g transform="translate(648,120) scale(4.12)"><rect width="6" height="6"></rect></g> <g transform="translate(672,120) scale(4.12)"><rect width="6" height="6"></rect></g> <g transform="translate(696,120) scale(4.12)"><rect width="6" height="6"></rect></g> <g transform="translate(720,120) scale(4.12)"><rect width="6" height="6"></rect></g> <g transform="translate(240,144) scale(4.12)"><rect width="6" height="6"></rect></g> <g transform="translate(336,144) scale(4.12)"><rect width="6" height="6"></rect></g> <g transform="translate(360,144) scale(4.12)"><rect width="6" height="6"></rect></g> <g transform="translate(384,144) scale(4.12)"><rect width="6" height="6"></rect></g> <g transform="translate(408,144) scale(4.12)"><rect width="6" height="6"></rect></g> <g transform="translate(456,144) scale(4.12)"><rect width="6" height="6"></rect></g> <g transform="translate(504,144) scale(4.12)"><rect width="6" height="6"></rect></g> <g transform="translate(552,144) scale(4.12)"><rect width="6" height="6"></rect></g> <g transform="translate(600,144) scale(4.12)"><rect width="6" height="6"></rect></g> <g transform="translate(648,144) scale(4.12)"><rect width="6" height="6"></rect></g> <g transform="translate(720,144) scale(4.12)"><rect width="6" height="6"></rect></g> <g transform="translate(240,168) scale(4.12)"><rect width="6" height="6"></rect></g> <g transform="translate(264,168) scale(4.12)"><rect width="6" height="6"></rect></g> <g transform="translate(360,168) scale(4.12)"><rect width="6" height="6"></rect></g> <g transform="translate(384,168) scale(4.12)"><rect width="6" height="6"></rect></g> <g transform="translate(408,168) scale(4.12)"><rect width="6" height="6"></rect></g> <g transform="translate(432,168) scale(4.12)"><rect width="6" height="6"></rect></g> <g transform="translate(456,168) scale(4.12)"><rect width="6" height="6"></rect></g> <g transform="translate(504,168) scale(4.12)"><rect width="6" height="6"></rect></g> <g transform="translate(552,168) scale(4.12)"><rect width="6" height="6"></rect></g> <g transform="translate(576,168) scale(4.12)"><rect width="6" height="6"></rect></g> <g transform="translate(624,168) scale(4.12)"><rect width="6" height="6"></rect></g> <g transform="translate(648,168) scale(4.12)"><rect width="6" height="6"></rect></g> <g transform="translate(696,168) scale(4.12)"><rect width="6" height="6"></rect></g> <g transform="translate(240,192) scale(4.12)"><rect width="6" height="6"></rect></g> <g transform="translate(288,192) scale(4.12)"><rect width="6" height="6"></rect></g> <g transform="translate(336,192) scale(4.12)"><rect width="6" height="6"></rect></g> <g transform="translate(384,192) scale(4.12)"><rect width="6" height="6"></rect></g> <g transform="translate(432,192) scale(4.12)"><rect width="6" height="6"></rect></g> <g transform="translate(480,192) scale(4.12)"><rect width="6" height="6"></rect></g> <g transform="translate(528,192) scale(4.12)"><rect width="6" height="6"></rect></g> <g transform="translate(576,192) scale(4.12)"><rect width="6" height="6"></rect></g> <g transform="translate(624,192) scale(4.12)"><rect width="6" height="6"></rect></g> <g transform="translate(672,192) scale(4.12)"><rect width="6" height="6"></rect></g> <g transform="translate(720,192) scale(4.12)"><rect width="6" height="6"></rect></g> <g transform="translate(240,216) scale(4.12)"><rect width="6" height="6"></rect></g> <g transform="translate(312,216) scale(4.12)"><rect width="6" height="6"></rect></g> <g transform="translate(336,216) scale(4.12)"><rect width="6" height="6"></rect></g> <g transform="translate(408,216) scale(4.12)"><rect width="6" height="6"></rect></g> <g transform="translate(432,216) scale(4.12)"><rect width="6" height="6"></rect></g> <g transform="translate(456,216) scale(4.12)"><rect width="6" height="6"></rect></g> <g transform="translate(480,216) scale(4.12)"><rect width="6" height="6"></rect></g> <g transform="translate(552,216) scale(4.12)"><rect width="6" height="6"></rect></g> <g transform="translate(576,216) scale(4.12)"><rect width="6" height="6"></rect></g> <g transform="translate(600,216) scale(4.12)"><rect width="6" height="6"></rect></g> <g transform="translate(624,216) scale(4.12)"><rect width="6" height="6"></rect></g> <g transform="translate(672,216) scale(4.12)"><rect width="6" height="6"></rect></g> <g transform="translate(696,216) scale(4.12)"><rect width="6" height="6"></rect></g> <g transform="translate(48,240) scale(4.12)"><rect width="6" height="6"></rect></g> <g transform="translate(96,240) scale(4.12)"><rect width="6" height="6"></rect></g> <g transform="translate(120,240) scale(4.12)"><rect width="6" height="6"></rect></g> <g transform="translate(144,240) scale(4.12)"><rect width="6" height="6"></rect></g> <g transform="translate(168,240) scale(4.12)"><rect width="6" height="6"></rect></g> <g transform="translate(192,240) scale(4.12)"><rect width="6" height="6"></rect></g> <g transform="translate(288,240) scale(4.12)"><rect width="6" height="6"></rect></g> <g transform="translate(360,240) scale(4.12)"><rect width="6" height="6"></rect></g> <g transform="translate(432,240) scale(4.12)"><rect width="6" height="6"></rect></g> <g transform="translate(552,240) scale(4.12)"><rect width="6" height="6"></rect></g> <g transform="translate(648,240) scale(4.12)"><rect width="6" height="6"></rect></g> <g transform="translate(696,240) scale(4.12)"><rect width="6" height="6"></rect></g> <g transform="translate(720,240) scale(4.12)"><rect width="6" height="6"></rect></g> <g transform="translate(768,240) scale(4.12)"><rect width="6" height="6"></rect></g> <g transform="translate(792,240) scale(4.12)"><rect width="6" height="6"></rect></g> <g transform="translate(816,240) scale(4.12)"><rect width="6" height="6"></rect></g> <g transform="translate(840,240) scale(4.12)"><rect width="6" height="6"></rect></g> <g transform="translate(864,240) scale(4.12)"><rect width="6" height="6"></rect></g> <g transform="translate(48,264) scale(4.12)"><rect width="6" height="6"></rect></g> <g transform="translate(120,264) scale(4.12)"><rect width="6" height="6"></rect></g> <g transform="translate(216,264) scale(4.12)"><rect width="6" height="6"></rect></g> <g transform="translate(288,264) scale(4.12)"><rect width="6" height="6"></rect></g> <g transform="translate(336,264) scale(4.12)"><rect width="6" height="6"></rect></g> <g transform="translate(408,264) scale(4.12)"><rect width="6" height="6"></rect></g> <g transform="translate(480,264) scale(4.12)"><rect width="6" height="6"></rect></g> <g transform="translate(528,264) scale(4.12)"><rect width="6" height="6"></rect></g> <g transform="translate(624,264) scale(4.12)"><rect width="6" height="6"></rect></g> <g transform="translate(648,264) scale(4.12)"><rect width="6" height="6"></rect></g> <g transform="translate(696,264) scale(4.12)"><rect width="6" height="6"></rect></g> <g transform="translate(720,264) scale(4.12)"><rect width="6" height="6"></rect></g> <g transform="translate(744,264) scale(4.12)"><rect width="6" height="6"></rect></g> <g transform="translate(768,264) scale(4.12)"><rect width="6" height="6"></rect></g> <g transform="translate(792,264) scale(4.12)"><rect width="6" height="6"></rect></g> <g transform="translate(816,264) scale(4.12)"><rect width="6" height="6"></rect></g> <g transform="translate(840,264) scale(4.12)"><rect width="6" height="6"></rect></g> <g transform="translate(888,264) scale(4.12)"><rect width="6" height="6"></rect></g> <g transform="translate(96,288) scale(4.12)"><rect width="6" height="6"></rect></g> <g transform="translate(120,288) scale(4.12)"><rect width="6" height="6"></rect></g> <g transform="translate(192,288) scale(4.12)"><rect width="6" height="6"></rect></g> <g transform="translate(216,288) scale(4.12)"><rect width="6" height="6"></rect></g> <g transform="translate(240,288) scale(4.12)"><rect width="6" height="6"></rect></g> <g transform="translate(288,288) scale(4.12)"><rect width="6" height="6"></rect></g> <g transform="translate(336,288) scale(4.12)"><rect width="6" height="6"></rect></g> <g transform="translate(408,288) scale(4.12)"><rect width="6" height="6"></rect></g> <g transform="translate(432,288) scale(4.12)"><rect width="6" height="6"></rect></g> <g transform="translate(480,288) scale(4.12)"><rect width="6" height="6"></rect></g> <g transform="translate(504,288) scale(4.12)"><rect width="6" height="6"></rect></g> <g transform="translate(576,288) scale(4.12)"><rect width="6" height="6"></rect></g> <g transform="translate(672,288) scale(4.12)"><rect width="6" height="6"></rect></g> <g transform="translate(768,288) scale(4.12)"><rect width="6" height="6"></rect></g> <g transform="translate(816,288) scale(4.12)"><rect width="6" height="6"></rect></g> <g transform="translate(888,288) scale(4.12)"><rect width="6" height="6"></rect></g> <g transform="translate(912,288) scale(4.12)"><rect width="6" height="6"></rect></g> <g transform="translate(96,312) scale(4.12)"><rect width="6" height="6"></rect></g> <g transform="translate(144,312) scale(4.12)"><rect width="6" height="6"></rect></g> <g transform="translate(168,312) scale(4.12)"><rect width="6" height="6"></rect></g> <g transform="translate(240,312) scale(4.12)"><rect width="6" height="6"></rect></g> <g transform="translate(264,312) scale(4.12)"><rect width="6" height="6"></rect></g> <g transform="translate(288,312) scale(4.12)"><rect width="6" height="6"></rect></g> <g transform="translate(336,312) scale(4.12)"><rect width="6" height="6"></rect></g> <g transform="translate(408,312) scale(4.12)"><rect width="6" height="6"></rect></g> <g transform="translate(456,312) scale(4.12)"><rect width="6" height="6"></rect></g> <g transform="translate(480,312) scale(4.12)"><rect width="6" height="6"></rect></g> <g transform="translate(504,312) scale(4.12)"><rect width="6" height="6"></rect></g> <g transform="translate(528,312) scale(4.12)"><rect width="6" height="6"></rect></g> <g transform="translate(552,312) scale(4.12)"><rect width="6" height="6"></rect></g> <g transform="translate(576,312) scale(4.12)"><rect width="6" height="6"></rect></g> <g transform="translate(624,312) scale(4.12)"><rect width="6" height="6"></rect></g> <g transform="translate(744,312) scale(4.12)"><rect width="6" height="6"></rect></g> <g transform="translate(768,312) scale(4.12)"><rect width="6" height="6"></rect></g> <g transform="translate(816,312) scale(4.12)"><rect width="6" height="6"></rect></g> <g transform="translate(840,312) scale(4.12)"><rect width="6" height="6"></rect></g> <g transform="translate(864,312) scale(4.12)"><rect width="6" height="6"></rect></g> <g transform="translate(912,312) scale(4.12)"><rect width="6" height="6"></rect></g> <g transform="translate(48,336) scale(4.12)"><rect width="6" height="6"></rect></g> <g transform="translate(72,336) scale(4.12)"><rect width="6" height="6"></rect></g> <g transform="translate(96,336) scale(4.12)"><rect width="6" height="6"></rect></g> <g transform="translate(120,336) scale(4.12)"><rect width="6" height="6"></rect></g> <g transform="translate(144,336) scale(4.12)"><rect width="6" height="6"></rect></g> <g transform="translate(192,336) scale(4.12)"><rect width="6" height="6"></rect></g> <g transform="translate(216,336) scale(4.12)"><rect width="6" height="6"></rect></g> <g transform="translate(264,336) scale(4.12)"><rect width="6" height="6"></rect></g> <g transform="translate(288,336) scale(4.12)"><rect width="6" height="6"></rect></g> <g transform="translate(336,336) scale(4.12)"><rect width="6" height="6"></rect></g> <g transform="translate(360,336) scale(4.12)"><rect width="6" height="6"></rect></g> <g transform="translate(384,336) scale(4.12)"><rect width="6" height="6"></rect></g> <g transform="translate(408,336) scale(4.12)"><rect width="6" height="6"></rect></g> <g transform="translate(432,336) scale(4.12)"><rect width="6" height="6"></rect></g> <g transform="translate(456,336) scale(4.12)"><rect width="6" height="6"></rect></g> <g transform="translate(480,336) scale(4.12)"><rect width="6" height="6"></rect></g> <g transform="translate(504,336) scale(4.12)"><rect width="6" height="6"></rect></g> <g transform="translate(528,336) scale(4.12)"><rect width="6" height="6"></rect></g> <g transform="translate(576,336) scale(4.12)"><rect width="6" height="6"></rect></g> <g transform="translate(600,336) scale(4.12)"><rect width="6" height="6"></rect></g> <g transform="translate(648,336) scale(4.12)"><rect width="6" height="6"></rect></g> <g transform="translate(672,336) scale(4.12)"><rect width="6" height="6"></rect></g> <g transform="translate(696,336) scale(4.12)"><rect width="6" height="6"></rect></g> <g transform="translate(720,336) scale(4.12)"><rect width="6" height="6"></rect></g> <g transform="translate(744,336) scale(4.12)"><rect width="6" height="6"></rect></g> <g transform="translate(768,336) scale(4.12)"><rect width="6" height="6"></rect></g> <g transform="translate(816,336) scale(4.12)"><rect width="6" height="6"></rect></g> <g transform="translate(840,336) scale(4.12)"><rect width="6" height="6"></rect></g> <g transform="translate(888,336) scale(4.12)"><rect width="6" height="6"></rect></g> <g transform="translate(912,336) scale(4.12)"><rect width="6" height="6"></rect></g> <g transform="translate(96,360) scale(4.12)"><rect width="6" height="6"></rect></g> <g transform="translate(120,360) scale(4.12)"><rect width="6" height="6"></rect></g> <g transform="translate(144,360) scale(4.12)"><rect width="6" height="6"></rect></g> <g transform="translate(168,360) scale(4.12)"><rect width="6" height="6"></rect></g> <g transform="translate(240,360) scale(4.12)"><rect width="6" height="6"></rect></g> <g transform="translate(336,360) scale(4.12)"><rect width="6" height="6"></rect></g> <g transform="translate(360,360) scale(4.12)"><rect width="6" height="6"></rect></g> <g transform="translate(528,360) scale(4.12)"><rect width="6" height="6"></rect></g> <g transform="translate(600,360) scale(4.12)"><rect width="6" height="6"></rect></g> <g transform="translate(648,360) scale(4.12)"><rect width="6" height="6"></rect></g> <g transform="translate(720,360) scale(4.12)"><rect width="6" height="6"></rect></g> <g transform="translate(744,360) scale(4.12)"><rect width="6" height="6"></rect></g> <g transform="translate(792,360) scale(4.12)"><rect width="6" height="6"></rect></g> <g transform="translate(888,360) scale(4.12)"><rect width="6" height="6"></rect></g> <g transform="translate(912,360) scale(4.12)"><rect width="6" height="6"></rect></g> <g transform="translate(48,384) scale(4.12)"><rect width="6" height="6"></rect></g> <g transform="translate(72,384) scale(4.12)"><rect width="6" height="6"></rect></g> <g transform="translate(120,384) scale(4.12)"><rect width="6" height="6"></rect></g> <g transform="translate(144,384) scale(4.12)"><rect width="6" height="6"></rect></g> <g transform="translate(168,384) scale(4.12)"><rect width="6" height="6"></rect></g> <g transform="translate(192,384) scale(4.12)"><rect width="6" height="6"></rect></g> <g transform="translate(240,384) scale(4.12)"><rect width="6" height="6"></rect></g> <g transform="translate(312,384) scale(4.12)"><rect width="6" height="6"></rect></g> <g transform="translate(336,384) scale(4.12)"><rect width="6" height="6"></rect></g> <g transform="translate(360,384) scale(4.12)"><rect width="6" height="6"></rect></g> <g transform="translate(480,384) scale(4.12)"><rect width="6" height="6"></rect></g> <g transform="translate(504,384) scale(4.12)"><rect width="6" height="6"></rect></g> <g transform="translate(576,384) scale(4.12)"><rect width="6" height="6"></rect></g> <g transform="translate(648,384) scale(4.12)"><rect width="6" height="6"></rect></g> <g transform="translate(672,384) scale(4.12)"><rect width="6" height="6"></rect></g> <g transform="translate(696,384) scale(4.12)"><rect width="6" height="6"></rect></g> <g transform="translate(720,384) scale(4.12)"><rect width="6" height="6"></rect></g> <g transform="translate(768,384) scale(4.12)"><rect width="6" height="6"></rect></g> <g transform="translate(792,384) scale(4.12)"><rect width="6" height="6"></rect></g> <g transform="translate(816,384) scale(4.12)"><rect width="6" height="6"></rect></g> <g transform="translate(840,384) scale(4.12)"><rect width="6" height="6"></rect></g> <g transform="translate(888,384) scale(4.12)"><rect width="6" height="6"></rect></g> <g transform="translate(48,408) scale(4.12)"><rect width="6" height="6"></rect></g> <g transform="translate(120,408) scale(4.12)"><rect width="6" height="6"></rect></g> <g transform="translate(144,408) scale(4.12)"><rect width="6" height="6"></rect></g> <g transform="translate(216,408) scale(4.12)"><rect width="6" height="6"></rect></g> <g transform="translate(408,408) scale(4.12)"><rect width="6" height="6"></rect></g> <g transform="translate(504,408) scale(4.12)"><rect width="6" height="6"></rect></g> <g transform="translate(600,408) scale(4.12)"><rect width="6" height="6"></rect></g> <g transform="translate(672,408) scale(4.12)"><rect width="6" height="6"></rect></g> <g transform="translate(696,408) scale(4.12)"><rect width="6" height="6"></rect></g> <g transform="translate(768,408) scale(4.12)"><rect width="6" height="6"></rect></g> <g transform="translate(792,408) scale(4.12)"><rect width="6" height="6"></rect></g> <g transform="translate(816,408) scale(4.12)"><rect width="6" height="6"></rect></g> <g transform="translate(888,408) scale(4.12)"><rect width="6" height="6"></rect></g> <g transform="translate(912,408) scale(4.12)"><rect width="6" height="6"></rect></g> <g transform="translate(48,432) scale(4.12)"><rect width="6" height="6"></rect></g> <g transform="translate(72,432) scale(4.12)"><rect width="6" height="6"></rect></g> <g transform="translate(120,432) scale(4.12)"><rect width="6" height="6"></rect></g> <g transform="translate(144,432) scale(4.12)"><rect width="6" height="6"></rect></g> <g transform="translate(192,432) scale(4.12)"><rect width="6" height="6"></rect></g> <g transform="translate(240,432) scale(4.12)"><rect width="6" height="6"></rect></g> <g transform="translate(264,432) scale(4.12)"><rect width="6" height="6"></rect></g> <g transform="translate(288,432) scale(4.12)"><rect width="6" height="6"></rect></g> <g transform="translate(312,432) scale(4.12)"><rect width="6" height="6"></rect></g> <g transform="translate(408,432) scale(4.12)"><rect width="6" height="6"></rect></g> <g transform="translate(480,432) scale(4.12)"><rect width="6" height="6"></rect></g> <g transform="translate(528,432) scale(4.12)"><rect width="6" height="6"></rect></g> <g transform="translate(552,432) scale(4.12)"><rect width="6" height="6"></rect></g> <g transform="translate(576,432) scale(4.12)"><rect width="6" height="6"></rect></g> <g transform="translate(600,432) scale(4.12)"><rect width="6" height="6"></rect></g> <g transform="translate(624,432) scale(4.12)"><rect width="6" height="6"></rect></g> <g transform="translate(648,432) scale(4.12)"><rect width="6" height="6"></rect></g> <g transform="translate(672,432) scale(4.12)"><rect width="6" height="6"></rect></g> <g transform="translate(696,432) scale(4.12)"><rect width="6" height="6"></rect></g> <g transform="translate(792,432) scale(4.12)"><rect width="6" height="6"></rect></g> <g transform="translate(816,432) scale(4.12)"><rect width="6" height="6"></rect></g> <g transform="translate(864,432) scale(4.12)"><rect width="6" height="6"></rect></g> <g transform="translate(888,432) scale(4.12)"><rect width="6" height="6"></rect></g> <g transform="translate(48,456) scale(4.12)"><rect width="6" height="6"></rect></g> <g transform="translate(72,456) scale(4.12)"><rect width="6" height="6"></rect></g> <g transform="translate(96,456) scale(4.12)"><rect width="6" height="6"></rect></g> <g transform="translate(120,456) scale(4.12)"><rect width="6" height="6"></rect></g> <g transform="translate(144,456) scale(4.12)"><rect width="6" height="6"></rect></g> <g transform="translate(216,456) scale(4.12)"><rect width="6" height="6"></rect></g> <g transform="translate(288,456) scale(4.12)"><rect width="6" height="6"></rect></g> <g transform="translate(336,456) scale(4.12)"><rect width="6" height="6"></rect></g> <g transform="translate(384,456) scale(4.12)"><rect width="6" height="6"></rect></g> <g transform="translate(408,456) scale(4.12)"><rect width="6" height="6"></rect></g> <g transform="translate(432,456) scale(4.12)"><rect width="6" height="6"></rect></g> <g transform="translate(456,456) scale(4.12)"><rect width="6" height="6"></rect></g> <g transform="translate(552,456) scale(4.12)"><rect width="6" height="6"></rect></g> <g transform="translate(696,456) scale(4.12)"><rect width="6" height="6"></rect></g> <g transform="translate(744,456) scale(4.12)"><rect width="6" height="6"></rect></g> <g transform="translate(816,456) scale(4.12)"><rect width="6" height="6"></rect></g> <g transform="translate(840,456) scale(4.12)"><rect width="6" height="6"></rect></g> <g transform="translate(864,456) scale(4.12)"><rect width="6" height="6"></rect></g> <g transform="translate(888,456) scale(4.12)"><rect width="6" height="6"></rect></g> <g transform="translate(168,480) scale(4.12)"><rect width="6" height="6"></rect></g> <g transform="translate(192,480) scale(4.12)"><rect width="6" height="6"></rect></g> <g transform="translate(216,480) scale(4.12)"><rect width="6" height="6"></rect></g> <g transform="translate(240,480) scale(4.12)"><rect width="6" height="6"></rect></g> <g transform="translate(288,480) scale(4.12)"><rect width="6" height="6"></rect></g> <g transform="translate(312,480) scale(4.12)"><rect width="6" height="6"></rect></g> <g transform="translate(456,480) scale(4.12)"><rect width="6" height="6"></rect></g> <g transform="translate(528,480) scale(4.12)"><rect width="6" height="6"></rect></g> <g transform="translate(552,480) scale(4.12)"><rect width="6" height="6"></rect></g> <g transform="translate(600,480) scale(4.12)"><rect width="6" height="6"></rect></g> <g transform="translate(624,480) scale(4.12)"><rect width="6" height="6"></rect></g> <g transform="translate(672,480) scale(4.12)"><rect width="6" height="6"></rect></g> <g transform="translate(720,480) scale(4.12)"><rect width="6" height="6"></rect></g> <g transform="translate(768,480) scale(4.12)"><rect width="6" height="6"></rect></g> <g transform="translate(864,480) scale(4.12)"><rect width="6" height="6"></rect></g> <g transform="translate(888,480) scale(4.12)"><rect width="6" height="6"></rect></g> <g transform="translate(912,480) scale(4.12)"><rect width="6" height="6"></rect></g> <g transform="translate(120,504) scale(4.12)"><rect width="6" height="6"></rect></g> <g transform="translate(168,504) scale(4.12)"><rect width="6" height="6"></rect></g> <g transform="translate(216,504) scale(4.12)"><rect width="6" height="6"></rect></g> <g transform="translate(288,504) scale(4.12)"><rect width="6" height="6"></rect></g> <g transform="translate(312,504) scale(4.12)"><rect width="6" height="6"></rect></g> <g transform="translate(384,504) scale(4.12)"><rect width="6" height="6"></rect></g> <g transform="translate(432,504) scale(4.12)"><rect width="6" height="6"></rect></g> <g transform="translate(456,504) scale(4.12)"><rect width="6" height="6"></rect></g> <g transform="translate(552,504) scale(4.12)"><rect width="6" height="6"></rect></g> <g transform="translate(576,504) scale(4.12)"><rect width="6" height="6"></rect></g> <g transform="translate(600,504) scale(4.12)"><rect width="6" height="6"></rect></g> <g transform="translate(672,504) scale(4.12)"><rect width="6" height="6"></rect></g> <g transform="translate(696,504) scale(4.12)"><rect width="6" height="6"></rect></g> <g transform="translate(768,504) scale(4.12)"><rect width="6" height="6"></rect></g> <g transform="translate(864,504) scale(4.12)"><rect width="6" height="6"></rect></g> <g transform="translate(912,504) scale(4.12)"><rect width="6" height="6"></rect></g> <g transform="translate(48,528) scale(4.12)"><rect width="6" height="6"></rect></g> <g transform="translate(72,528) scale(4.12)"><rect width="6" height="6"></rect></g> <g transform="translate(120,528) scale(4.12)"><rect width="6" height="6"></rect></g> <g transform="translate(144,528) scale(4.12)"><rect width="6" height="6"></rect></g> <g transform="translate(168,528) scale(4.12)"><rect width="6" height="6"></rect></g> <g transform="translate(192,528) scale(4.12)"><rect width="6" height="6"></rect></g> <g transform="translate(240,528) scale(4.12)"><rect width="6" height="6"></rect></g> <g transform="translate(336,528) scale(4.12)"><rect width="6" height="6"></rect></g> <g transform="translate(432,528) scale(4.12)"><rect width="6" height="6"></rect></g> <g transform="translate(576,528) scale(4.12)"><rect width="6" height="6"></rect></g> <g transform="translate(624,528) scale(4.12)"><rect width="6" height="6"></rect></g> <g transform="translate(648,528) scale(4.12)"><rect width="6" height="6"></rect></g> <g transform="translate(696,528) scale(4.12)"><rect width="6" height="6"></rect></g> <g transform="translate(744,528) scale(4.12)"><rect width="6" height="6"></rect></g> <g transform="translate(768,528) scale(4.12)"><rect width="6" height="6"></rect></g> <g transform="translate(816,528) scale(4.12)"><rect width="6" height="6"></rect></g> <g transform="translate(48,552) scale(4.12)"><rect width="6" height="6"></rect></g> <g transform="translate(72,552) scale(4.12)"><rect width="6" height="6"></rect></g> <g transform="translate(96,552) scale(4.12)"><rect width="6" height="6"></rect></g> <g transform="translate(216,552) scale(4.12)"><rect width="6" height="6"></rect></g> <g transform="translate(240,552) scale(4.12)"><rect width="6" height="6"></rect></g> <g transform="translate(264,552) scale(4.12)"><rect width="6" height="6"></rect></g> <g transform="translate(288,552) scale(4.12)"><rect width="6" height="6"></rect></g> <g transform="translate(360,552) scale(4.12)"><rect width="6" height="6"></rect></g> <g transform="translate(384,552) scale(4.12)"><rect width="6" height="6"></rect></g> <g transform="translate(408,552) scale(4.12)"><rect width="6" height="6"></rect></g> <g transform="translate(432,552) scale(4.12)"><rect width="6" height="6"></rect></g> <g transform="translate(456,552) scale(4.12)"><rect width="6" height="6"></rect></g> <g transform="translate(552,552) scale(4.12)"><rect width="6" height="6"></rect></g> <g transform="translate(576,552) scale(4.12)"><rect width="6" height="6"></rect></g> <g transform="translate(600,552) scale(4.12)"><rect width="6" height="6"></rect></g> <g transform="translate(624,552) scale(4.12)"><rect width="6" height="6"></rect></g> <g transform="translate(648,552) scale(4.12)"><rect width="6" height="6"></rect></g> <g transform="translate(720,552) scale(4.12)"><rect width="6" height="6"></rect></g> <g transform="translate(744,552) scale(4.12)"><rect width="6" height="6"></rect></g> <g transform="translate(840,552) scale(4.12)"><rect width="6" height="6"></rect></g> <g transform="translate(888,552) scale(4.12)"><rect width="6" height="6"></rect></g> <g transform="translate(48,576) scale(4.12)"><rect width="6" height="6"></rect></g> <g transform="translate(120,576) scale(4.12)"><rect width="6" height="6"></rect></g> <g transform="translate(144,576) scale(4.12)"><rect width="6" height="6"></rect></g> <g transform="translate(168,576) scale(4.12)"><rect width="6" height="6"></rect></g> <g transform="translate(192,576) scale(4.12)"><rect width="6" height="6"></rect></g> <g transform="translate(240,576) scale(4.12)"><rect width="6" height="6"></rect></g> <g transform="translate(288,576) scale(4.12)"><rect width="6" height="6"></rect></g> <g transform="translate(312,576) scale(4.12)"><rect width="6" height="6"></rect></g> <g transform="translate(456,576) scale(4.12)"><rect width="6" height="6"></rect></g> <g transform="translate(504,576) scale(4.12)"><rect width="6" height="6"></rect></g> <g transform="translate(528,576) scale(4.12)"><rect width="6" height="6"></rect></g> <g transform="translate(552,576) scale(4.12)"><rect width="6" height="6"></rect></g> <g transform="translate(696,576) scale(4.12)"><rect width="6" height="6"></rect></g> <g transform="translate(768,576) scale(4.12)"><rect width="6" height="6"></rect></g> <g transform="translate(792,576) scale(4.12)"><rect width="6" height="6"></rect></g> <g transform="translate(816,576) scale(4.12)"><rect width="6" height="6"></rect></g> <g transform="translate(840,576) scale(4.12)"><rect width="6" height="6"></rect></g> <g transform="translate(48,600) scale(4.12)"><rect width="6" height="6"></rect></g> <g transform="translate(72,600) scale(4.12)"><rect width="6" height="6"></rect></g> <g transform="translate(216,600) scale(4.12)"><rect width="6" height="6"></rect></g> <g transform="translate(288,600) scale(4.12)"><rect width="6" height="6"></rect></g> <g transform="translate(312,600) scale(4.12)"><rect width="6" height="6"></rect></g> <g transform="translate(384,600) scale(4.12)"><rect width="6" height="6"></rect></g> <g transform="translate(408,600) scale(4.12)"><rect width="6" height="6"></rect></g> <g transform="translate(456,600) scale(4.12)"><rect width="6" height="6"></rect></g> <g transform="translate(480,600) scale(4.12)"><rect width="6" height="6"></rect></g> <g transform="translate(552,600) scale(4.12)"><rect width="6" height="6"></rect></g> <g transform="translate(576,600) scale(4.12)"><rect width="6" height="6"></rect></g> <g transform="translate(672,600) scale(4.12)"><rect width="6" height="6"></rect></g> <g transform="translate(720,600) scale(4.12)"><rect width="6" height="6"></rect></g> <g transform="translate(768,600) scale(4.12)"><rect width="6" height="6"></rect></g> <g transform="translate(792,600) scale(4.12)"><rect width="6" height="6"></rect></g> <g transform="translate(816,600) scale(4.12)"><rect width="6" height="6"></rect></g> <g transform="translate(912,600) scale(4.12)"><rect width="6" height="6"></rect></g> <g transform="translate(120,624) scale(4.12)"><rect width="6" height="6"></rect></g> <g transform="translate(168,624) scale(4.12)"><rect width="6" height="6"></rect></g> <g transform="translate(192,624) scale(4.12)"><rect width="6" height="6"></rect></g> <g transform="translate(216,624) scale(4.12)"><rect width="6" height="6"></rect></g> <g transform="translate(240,624) scale(4.12)"><rect width="6" height="6"></rect></g> <g transform="translate(360,624) scale(4.12)"><rect width="6" height="6"></rect></g> <g transform="translate(384,624) scale(4.12)"><rect width="6" height="6"></rect></g> <g transform="translate(432,624) scale(4.12)"><rect width="6" height="6"></rect></g> <g transform="translate(552,624) scale(4.12)"><rect width="6" height="6"></rect></g> <g transform="translate(600,624) scale(4.12)"><rect width="6" height="6"></rect></g> <g transform="translate(624,624) scale(4.12)"><rect width="6" height="6"></rect></g> <g transform="translate(648,624) scale(4.12)"><rect width="6" height="6"></rect></g> <g transform="translate(672,624) scale(4.12)"><rect width="6" height="6"></rect></g> <g transform="translate(720,624) scale(4.12)"><rect width="6" height="6"></rect></g> <g transform="translate(744,624) scale(4.12)"><rect width="6" height="6"></rect></g> <g transform="translate(792,624) scale(4.12)"><rect width="6" height="6"></rect></g> <g transform="translate(864,624) scale(4.12)"><rect width="6" height="6"></rect></g> <g transform="translate(912,624) scale(4.12)"><rect width="6" height="6"></rect></g> <g transform="translate(48,648) scale(4.12)"><rect width="6" height="6"></rect></g> <g transform="translate(72,648) scale(4.12)"><rect width="6" height="6"></rect></g> <g transform="translate(96,648) scale(4.12)"><rect width="6" height="6"></rect></g> <g transform="translate(144,648) scale(4.12)"><rect width="6" height="6"></rect></g> <g transform="translate(216,648) scale(4.12)"><rect width="6" height="6"></rect></g> <g transform="translate(264,648) scale(4.12)"><rect width="6" height="6"></rect></g> <g transform="translate(288,648) scale(4.12)"><rect width="6" height="6"></rect></g> <g transform="translate(312,648) scale(4.12)"><rect width="6" height="6"></rect></g> <g transform="translate(360,648) scale(4.12)"><rect width="6" height="6"></rect></g> <g transform="translate(408,648) scale(4.12)"><rect width="6" height="6"></rect></g> <g transform="translate(480,648) scale(4.12)"><rect width="6" height="6"></rect></g> <g transform="translate(528,648) scale(4.12)"><rect width="6" height="6"></rect></g> <g transform="translate(552,648) scale(4.12)"><rect width="6" height="6"></rect></g> <g transform="translate(576,648) scale(4.12)"><rect width="6" height="6"></rect></g> <g transform="translate(600,648) scale(4.12)"><rect width="6" height="6"></rect></g> <g transform="translate(624,648) scale(4.12)"><rect width="6" height="6"></rect></g> <g transform="translate(648,648) scale(4.12)"><rect width="6" height="6"></rect></g> <g transform="translate(696,648) scale(4.12)"><rect width="6" height="6"></rect></g> <g transform="translate(720,648) scale(4.12)"><rect width="6" height="6"></rect></g> <g transform="translate(744,648) scale(4.12)"><rect width="6" height="6"></rect></g> <g transform="translate(768,648) scale(4.12)"><rect width="6" height="6"></rect></g> <g transform="translate(792,648) scale(4.12)"><rect width="6" height="6"></rect></g> <g transform="translate(816,648) scale(4.12)"><rect width="6" height="6"></rect></g> <g transform="translate(840,648) scale(4.12)"><rect width="6" height="6"></rect></g> <g transform="translate(48,672) scale(4.12)"><rect width="6" height="6"></rect></g> <g transform="translate(192,672) scale(4.12)"><rect width="6" height="6"></rect></g> <g transform="translate(240,672) scale(4.12)"><rect width="6" height="6"></rect></g> <g transform="translate(288,672) scale(4.12)"><rect width="6" height="6"></rect></g> <g transform="translate(312,672) scale(4.12)"><rect width="6" height="6"></rect></g> <g transform="translate(408,672) scale(4.12)"><rect width="6" height="6"></rect></g> <g transform="translate(432,672) scale(4.12)"><rect width="6" height="6"></rect></g> <g transform="translate(480,672) scale(4.12)"><rect width="6" height="6"></rect></g> <g transform="translate(504,672) scale(4.12)"><rect width="6" height="6"></rect></g> <g transform="translate(552,672) scale(4.12)"><rect width="6" height="6"></rect></g> <g transform="translate(600,672) scale(4.12)"><rect width="6" height="6"></rect></g> <g transform="translate(624,672) scale(4.12)"><rect width="6" height="6"></rect></g> <g transform="translate(648,672) scale(4.12)"><rect width="6" height="6"></rect></g> <g transform="translate(672,672) scale(4.12)"><rect width="6" height="6"></rect></g> <g transform="translate(768,672) scale(4.12)"><rect width="6" height="6"></rect></g> <g transform="translate(792,672) scale(4.12)"><rect width="6" height="6"></rect></g> <g transform="translate(840,672) scale(4.12)"><rect width="6" height="6"></rect></g> <g transform="translate(888,672) scale(4.12)"><rect width="6" height="6"></rect></g> <g transform="translate(912,672) scale(4.12)"><rect width="6" height="6"></rect></g> <g transform="translate(48,696) scale(4.12)"><rect width="6" height="6"></rect></g> <g transform="translate(120,696) scale(4.12)"><rect width="6" height="6"></rect></g> <g transform="translate(144,696) scale(4.12)"><rect width="6" height="6"></rect></g> <g transform="translate(264,696) scale(4.12)"><rect width="6" height="6"></rect></g> <g transform="translate(336,696) scale(4.12)"><rect width="6" height="6"></rect></g> <g transform="translate(360,696) scale(4.12)"><rect width="6" height="6"></rect></g> <g transform="translate(408,696) scale(4.12)"><rect width="6" height="6"></rect></g> <g transform="translate(456,696) scale(4.12)"><rect width="6" height="6"></rect></g> <g transform="translate(480,696) scale(4.12)"><rect width="6" height="6"></rect></g> <g transform="translate(504,696) scale(4.12)"><rect width="6" height="6"></rect></g> <g transform="translate(528,696) scale(4.12)"><rect width="6" height="6"></rect></g> <g transform="translate(552,696) scale(4.12)"><rect width="6" height="6"></rect></g> <g transform="translate(624,696) scale(4.12)"><rect width="6" height="6"></rect></g> <g transform="translate(696,696) scale(4.12)"><rect width="6" height="6"></rect></g> <g transform="translate(768,696) scale(4.12)"><rect width="6" height="6"></rect></g> <g transform="translate(792,696) scale(4.12)"><rect width="6" height="6"></rect></g> <g transform="translate(816,696) scale(4.12)"><rect width="6" height="6"></rect></g> <g transform="translate(840,696) scale(4.12)"><rect width="6" height="6"></rect></g> <g transform="translate(864,696) scale(4.12)"><rect width="6" height="6"></rect></g> <g transform="translate(48,720) scale(4.12)"><rect width="6" height="6"></rect></g> <g transform="translate(96,720) scale(4.12)"><rect width="6" height="6"></rect></g> <g transform="translate(120,720) scale(4.12)"><rect width="6" height="6"></rect></g> <g transform="translate(144,720) scale(4.12)"><rect width="6" height="6"></rect></g> <g transform="translate(168,720) scale(4.12)"><rect width="6" height="6"></rect></g> <g transform="translate(192,720) scale(4.12)"><rect width="6" height="6"></rect></g> <g transform="translate(216,720) scale(4.12)"><rect width="6" height="6"></rect></g> <g transform="translate(288,720) scale(4.12)"><rect width="6" height="6"></rect></g> <g transform="translate(336,720) scale(4.12)"><rect width="6" height="6"></rect></g> <g transform="translate(360,720) scale(4.12)"><rect width="6" height="6"></rect></g> <g transform="translate(408,720) scale(4.12)"><rect width="6" height="6"></rect></g> <g transform="translate(432,720) scale(4.12)"><rect width="6" height="6"></rect></g> <g transform="translate(456,720) scale(4.12)"><rect width="6" height="6"></rect></g> <g transform="translate(480,720) scale(4.12)"><rect width="6" height="6"></rect></g> <g transform="translate(504,720) scale(4.12)"><rect width="6" height="6"></rect></g> <g transform="translate(528,720) scale(4.12)"><rect width="6" height="6"></rect></g> <g transform="translate(576,720) scale(4.12)"><rect width="6" height="6"></rect></g> <g transform="translate(600,720) scale(4.12)"><rect width="6" height="6"></rect></g> <g transform="translate(624,720) scale(4.12)"><rect width="6" height="6"></rect></g> <g transform="translate(648,720) scale(4.12)"><rect width="6" height="6"></rect></g> <g transform="translate(672,720) scale(4.12)"><rect width="6" height="6"></rect></g> <g transform="translate(696,720) scale(4.12)"><rect width="6" height="6"></rect></g> <g transform="translate(720,720) scale(4.12)"><rect width="6" height="6"></rect></g> <g transform="translate(744,720) scale(4.12)"><rect width="6" height="6"></rect></g> <g transform="translate(768,720) scale(4.12)"><rect width="6" height="6"></rect></g> <g transform="translate(792,720) scale(4.12)"><rect width="6" height="6"></rect></g> <g transform="translate(816,720) scale(4.12)"><rect width="6" height="6"></rect></g> <g transform="translate(864,720) scale(4.12)"><rect width="6" height="6"></rect></g> <g transform="translate(888,720) scale(4.12)"><rect width="6" height="6"></rect></g> <g transform="translate(240,744) scale(4.12)"><rect width="6" height="6"></rect></g> <g transform="translate(360,744) scale(4.12)"><rect width="6" height="6"></rect></g> <g transform="translate(384,744) scale(4.12)"><rect width="6" height="6"></rect></g> <g transform="translate(528,744) scale(4.12)"><rect width="6" height="6"></rect></g> <g transform="translate(576,744) scale(4.12)"><rect width="6" height="6"></rect></g> <g transform="translate(600,744) scale(4.12)"><rect width="6" height="6"></rect></g> <g transform="translate(696,744) scale(4.12)"><rect width="6" height="6"></rect></g> <g transform="translate(720,744) scale(4.12)"><rect width="6" height="6"></rect></g> <g transform="translate(816,744) scale(4.12)"><rect width="6" height="6"></rect></g> <g transform="translate(840,744) scale(4.12)"><rect width="6" height="6"></rect></g> <g transform="translate(888,744) scale(4.12)"><rect width="6" height="6"></rect></g> <g transform="translate(912,744) scale(4.12)"><rect width="6" height="6"></rect></g> <g transform="translate(264,768) scale(4.12)"><rect width="6" height="6"></rect></g> <g transform="translate(336,768) scale(4.12)"><rect width="6" height="6"></rect></g> <g transform="translate(480,768) scale(4.12)"><rect width="6" height="6"></rect></g> <g transform="translate(504,768) scale(4.12)"><rect width="6" height="6"></rect></g> <g transform="translate(528,768) scale(4.12)"><rect width="6" height="6"></rect></g> <g transform="translate(576,768) scale(4.12)"><rect width="6" height="6"></rect></g> <g transform="translate(672,768) scale(4.12)"><rect width="6" height="6"></rect></g> <g transform="translate(720,768) scale(4.12)"><rect width="6" height="6"></rect></g> <g transform="translate(768,768) scale(4.12)"><rect width="6" height="6"></rect></g> <g transform="translate(816,768) scale(4.12)"><rect width="6" height="6"></rect></g> <g transform="translate(864,768) scale(4.12)"><rect width="6" height="6"></rect></g> <g transform="translate(888,768) scale(4.12)"><rect width="6" height="6"></rect></g> <g transform="translate(240,792) scale(4.12)"><rect width="6" height="6"></rect></g> <g transform="translate(312,792) scale(4.12)"><rect width="6" height="6"></rect></g> <g transform="translate(336,792) scale(4.12)"><rect width="6" height="6"></rect></g> <g transform="translate(360,792) scale(4.12)"><rect width="6" height="6"></rect></g> <g transform="translate(408,792) scale(4.12)"><rect width="6" height="6"></rect></g> <g transform="translate(504,792) scale(4.12)"><rect width="6" height="6"></rect></g> <g transform="translate(528,792) scale(4.12)"><rect width="6" height="6"></rect></g> <g transform="translate(600,792) scale(4.12)"><rect width="6" height="6"></rect></g> <g transform="translate(696,792) scale(4.12)"><rect width="6" height="6"></rect></g> <g transform="translate(720,792) scale(4.12)"><rect width="6" height="6"></rect></g> <g transform="translate(816,792) scale(4.12)"><rect width="6" height="6"></rect></g> <g transform="translate(840,792) scale(4.12)"><rect width="6" height="6"></rect></g> <g transform="translate(240,816) scale(4.12)"><rect width="6" height="6"></rect></g> <g transform="translate(264,816) scale(4.12)"><rect width="6" height="6"></rect></g> <g transform="translate(288,816) scale(4.12)"><rect width="6" height="6"></rect></g> <g transform="translate(336,816) scale(4.12)"><rect width="6" height="6"></rect></g> <g transform="translate(360,816) scale(4.12)"><rect width="6" height="6"></rect></g> <g transform="translate(408,816) scale(4.12)"><rect width="6" height="6"></rect></g> <g transform="translate(480,816) scale(4.12)"><rect width="6" height="6"></rect></g> <g transform="translate(504,816) scale(4.12)"><rect width="6" height="6"></rect></g> <g transform="translate(528,816) scale(4.12)"><rect width="6" height="6"></rect></g> <g transform="translate(552,816) scale(4.12)"><rect width="6" height="6"></rect></g> <g transform="translate(576,816) scale(4.12)"><rect width="6" height="6"></rect></g> <g transform="translate(600,816) scale(4.12)"><rect width="6" height="6"></rect></g> <g transform="translate(624,816) scale(4.12)"><rect width="6" height="6"></rect></g> <g transform="translate(696,816) scale(4.12)"><rect width="6" height="6"></rect></g> <g transform="translate(720,816) scale(4.12)"><rect width="6" height="6"></rect></g> <g transform="translate(744,816) scale(4.12)"><rect width="6" height="6"></rect></g> <g transform="translate(768,816) scale(4.12)"><rect width="6" height="6"></rect></g> <g transform="translate(792,816) scale(4.12)"><rect width="6" height="6"></rect></g> <g transform="translate(816,816) scale(4.12)"><rect width="6" height="6"></rect></g> <g transform="translate(864,816) scale(4.12)"><rect width="6" height="6"></rect></g> <g transform="translate(912,816) scale(4.12)"><rect width="6" height="6"></rect></g> <g transform="translate(240,840) scale(4.12)"><rect width="6" height="6"></rect></g> <g transform="translate(288,840) scale(4.12)"><rect width="6" height="6"></rect></g> <g transform="translate(336,840) scale(4.12)"><rect width="6" height="6"></rect></g> <g transform="translate(408,840) scale(4.12)"><rect width="6" height="6"></rect></g> <g transform="translate(432,840) scale(4.12)"><rect width="6" height="6"></rect></g> <g transform="translate(456,840) scale(4.12)"><rect width="6" height="6"></rect></g> <g transform="translate(552,840) scale(4.12)"><rect width="6" height="6"></rect></g> <g transform="translate(600,840) scale(4.12)"><rect width="6" height="6"></rect></g> <g transform="translate(624,840) scale(4.12)"><rect width="6" height="6"></rect></g> <g transform="translate(672,840) scale(4.12)"><rect width="6" height="6"></rect></g> <g transform="translate(720,840) scale(4.12)"><rect width="6" height="6"></rect></g> <g transform="translate(744,840) scale(4.12)"><rect width="6" height="6"></rect></g> <g transform="translate(768,840) scale(4.12)"><rect width="6" height="6"></rect></g> <g transform="translate(816,840) scale(4.12)"><rect width="6" height="6"></rect></g> <g transform="translate(888,840) scale(4.12)"><rect width="6" height="6"></rect></g> <g transform="translate(240,864) scale(4.12)"><rect width="6" height="6"></rect></g> <g transform="translate(312,864) scale(4.12)"><rect width="6" height="6"></rect></g> <g transform="translate(360,864) scale(4.12)"><rect width="6" height="6"></rect></g> <g transform="translate(456,864) scale(4.12)"><rect width="6" height="6"></rect></g> <g transform="translate(480,864) scale(4.12)"><rect width="6" height="6"></rect></g> <g transform="translate(528,864) scale(4.12)"><rect width="6" height="6"></rect></g> <g transform="translate(552,864) scale(4.12)"><rect width="6" height="6"></rect></g> <g transform="translate(624,864) scale(4.12)"><rect width="6" height="6"></rect></g> <g transform="translate(648,864) scale(4.12)"><rect width="6" height="6"></rect></g> <g transform="translate(696,864) scale(4.12)"><rect width="6" height="6"></rect></g> <g transform="translate(744,864) scale(4.12)"><rect width="6" height="6"></rect></g> <g transform="translate(912,864) scale(4.12)"><rect width="6" height="6"></rect></g> <g transform="translate(336,888) scale(4.12)"><rect width="6" height="6"></rect></g> <g transform="translate(360,888) scale(4.12)"><rect width="6" height="6"></rect></g> <g transform="translate(432,888) scale(4.12)"><rect width="6" height="6"></rect></g> <g transform="translate(456,888) scale(4.12)"><rect width="6" height="6"></rect></g> <g transform="translate(552,888) scale(4.12)"><rect width="6" height="6"></rect></g> <g transform="translate(624,888) scale(4.12)"><rect width="6" height="6"></rect></g> <g transform="translate(672,888) scale(4.12)"><rect width="6" height="6"></rect></g> <g transform="translate(696,888) scale(4.12)"><rect width="6" height="6"></rect></g> <g transform="translate(768,888) scale(4.12)"><rect width="6" height="6"></rect></g> <g transform="translate(816,888) scale(4.12)"><rect width="6" height="6"></rect></g> <g transform="translate(840,888) scale(4.12)"><rect width="6" height="6"></rect></g> <g transform="translate(912,888) scale(4.12)"><rect width="6" height="6"></rect></g> <g transform="translate(240,912) scale(4.12)"><rect width="6" height="6"></rect></g> <g transform="translate(264,912) scale(4.12)"><rect width="6" height="6"></rect></g> <g transform="translate(288,912) scale(4.12)"><rect width="6" height="6"></rect></g> <g transform="translate(432,912) scale(4.12)"><rect width="6" height="6"></rect></g> <g transform="translate(624,912) scale(4.12)"><rect width="6" height="6"></rect></g> <g transform="translate(648,912) scale(4.12)"><rect width="6" height="6"></rect></g> <g transform="translate(672,912) scale(4.12)"><rect width="6" height="6"></rect></g> <g transform="translate(696,912) scale(4.12)"><rect width="6" height="6"></rect></g> <g transform="translate(720,912) scale(4.12)"><rect width="6" height="6"></rect></g> <g transform="translate(744,912) scale(4.12)"><rect width="6" height="6"></rect></g> <g transform="translate(768,912) scale(4.12)"><rect width="6" height="6"></rect></g> <g transform="translate(816,912) scale(4.12)"><rect width="6" height="6"></rect></g> <g transform="translate(840,912) scale(4.12)"><rect width="6" height="6"></rect></g> <g transform="translate(864,912) scale(4.12)"><rect width="6" height="6"></rect></g> <g transform="translate(888,912) scale(4.12)"><rect width="6" height="6"></rect></g> <g transform="translate(912,912) scale(4.12)"><rect width="6" height="6"></rect></g> <g transform="translate(48,48)"><g transform="scale(12)"><path d="M0,0v14h14V0H0z M12,12H2V2h10V12z"></path></g></g> <g transform="translate(768,48)"><g transform="scale(12)"><path d="M0,0v14h14V0H0z M12,12H2V2h10V12z"></path></g></g> <g transform="translate(48,768)"><g transform="scale(12)"><path d="M0,0v14h14V0H0z M12,12H2V2h10V12z"></path></g></g> <g transform="translate(96,96)"><g transform="scale(12)"><rect width="6" height="6"></rect></g></g> <g transform="translate(816,96)"><g transform="scale(12)"><rect width="6" height="6"></rect></g></g> <g transform="translate(96,816)"><g transform="scale(12)"><rect width="6" height="6"></rect></g></g> </g></svg> 