<?xml version="1.0" encoding="UTF-8"?> <svg xmlns="http://www.w3.org/2000/svg" width="229" height="38" viewBox="0 0 229 38" fill="none"><g clip-path="url(#clip0)"><path d="M110.284 11.7825L115.489 8.06738H97.9492V30.6763H115.489V26.9082H102.946V21.1232H113.667V17.3551H102.946V11.7825H110.284Z" fill="white"></path><path d="M64.9529 25.7928L64.5365 26.0051C63.3395 26.5358 61.9863 26.8543 60.6851 26.8543C57.9788 26.9604 55.3765 25.5805 53.9713 23.1923C52.5661 20.8571 52.5661 17.885 53.9713 15.5498C55.3765 13.2146 57.9267 11.7816 60.6851 11.8878C62.2986 11.8878 63.912 12.3654 65.2131 13.2677L68.8042 10.6671L68.5961 10.4548L68.1797 10.1364C65.9417 8.49115 63.2874 7.64199 60.529 7.74813C57.2501 7.64199 54.0754 8.80958 51.6292 10.9856C49.4433 13.0554 48.1942 15.8682 48.1422 18.8403V19.2118C48.0901 22.3962 49.3392 25.4213 51.6292 27.5973C54.0754 29.8263 57.2501 30.9939 60.529 30.9409C63.8599 31.047 67.0867 29.7733 69.4288 27.4381L66.1499 25.1029L64.9529 25.7928Z" fill="white"></path><path d="M37.4727 15.6031L33.4132 18.6282V18.8405V19.0528C33.4132 23.1925 31.6957 26.9606 28.9373 29.6143C26.335 32.1087 22.7959 33.7009 18.8925 33.7009C18.8925 33.7009 18.8925 33.7009 18.8405 33.7009C14.6768 33.7009 10.9816 31.8964 8.32727 29.0835C5.88114 26.483 4.37182 22.9271 4.37182 19.0528C4.37182 14.8601 6.14136 11.0919 8.95182 8.43828C11.5541 5.94387 15.0411 4.45784 18.8925 4.45784C21.9111 4.45784 24.7216 5.41314 27.0636 7.00532L30.7589 4.29862C27.7402 1.85728 23.9409 0.318171 19.8293 0.10588C19.517 0.10588 19.2048 0.10588 18.8925 0.10588C14.0002 -0.000264786 9.57636 1.85728 6.24545 4.93549C6.14136 5.04163 6.03727 5.14778 5.93318 5.25392C5.82909 5.36007 5.67295 5.46622 5.56886 5.62543C2.34205 8.80979 0.312273 13.1617 0.0520455 18.0444H0C0 18.3629 0 18.6813 0 18.9997C0 23.8824 1.87364 28.3405 4.89227 31.7372C4.99636 31.8433 5.10045 31.9495 5.20455 32.0556C5.30864 32.1617 5.41273 32.321 5.56886 32.4271C8.79568 35.6645 13.1155 37.7344 17.9557 37.9467C18.268 37.9467 18.5802 37.9467 18.8925 37.9467C18.8925 37.9467 18.8925 37.9467 18.9445 37.9467C23.8368 37.9467 28.2607 36.0891 31.5916 33.0109L32.008 32.6394C32.06 32.5863 32.112 32.5333 32.1641 32.4271C32.2161 32.374 32.2161 32.374 32.2682 32.321C35.7032 28.8712 37.785 24.1478 37.785 18.8936C37.733 17.8321 37.6809 16.7176 37.4727 15.6031Z" fill="white"></path><path d="M11.8145 13.9046V19.4241L18.9967 24.0415L36.1717 11.0917C35.5472 9.71185 34.8185 8.43811 33.9338 7.27051L18.9967 18.5219L11.8145 13.9046Z" fill="white"></path><path d="M88.32 11.7818L93.5766 8.01367H73.5391V30.6226H83.9482H84.4166C89.9854 30.4634 93.2122 27.9159 93.2122 23.5109C93.2122 19.212 90.1936 16.8237 84.6247 16.8237H78.5875V11.7818H88.32ZM83.792 20.645C86.9668 20.645 88.4241 21.7064 88.4241 23.7762C88.4241 25.8461 86.8627 26.9075 83.792 26.9075H78.5875V20.645H83.792Z" fill="white"></path><path d="M156.969 20.0082H153.69V16.2931H162.955V14.4355H151.557V30.6758H156.969C161.497 30.6758 164.048 28.9244 164.048 25.2624C163.996 21.6003 161.601 20.0082 156.969 20.0082ZM156.865 28.8182H153.69V21.8657H156.813C160.248 21.8657 161.758 22.6618 161.758 25.1031C161.758 27.8629 160.04 28.8182 156.865 28.8182Z" fill="white"></path><path d="M211.928 18.8408C208.545 18.8408 206.047 20.7514 206.047 24.838C206.047 28.9246 208.233 30.9414 211.98 30.9414C214.322 30.9414 215.779 30.2514 216.352 29.5615V27.3324C215.727 28.447 214.27 29.3492 211.98 29.3492C210.939 29.4553 209.898 29.1369 209.17 28.447C208.389 27.757 208.025 26.7486 208.077 25.6872H217.185V24.4134C217.185 20.8576 215.311 18.8408 211.928 18.8408ZM208.077 23.9358V23.7235C208.129 22.8213 208.545 22.0252 209.222 21.3883C209.95 20.7514 210.939 20.433 211.876 20.5391C212.761 20.4861 213.646 20.8045 214.322 21.4945C214.947 22.1313 215.259 23.0336 215.155 23.9358H208.077Z" fill="white"></path><path d="M201.156 23.9354H194.859V19.0527H192.881V30.6756H194.859V25.6337H201.156V30.6756H203.134V19.0527H201.156V23.9354Z" fill="white"></path><path d="M129.748 8.06738H120.172V30.6763H125.22V24.3076H129.748H130.217C136.046 24.1484 139.637 21.0702 139.637 16.1875C139.637 11.1456 135.838 8.06738 129.748 8.06738ZM129.644 20.4864H125.22V11.7825H129.644C132.871 11.7825 134.641 13.3216 134.641 16.1344C134.641 18.9473 132.871 20.4864 129.644 20.4864Z" fill="white"></path><path d="M225.096 29.2431C222.546 29.2431 221.193 27.8632 221.193 24.8911V24.838C221.193 21.9721 222.546 20.5391 225.096 20.5391C226.657 20.5391 228.115 21.3883 228.895 22.7682V20.0084C227.75 19.2654 226.449 18.8408 225.096 18.8408C221.713 18.8408 219.215 20.7514 219.215 24.838C219.215 28.9246 221.401 30.9414 225.148 30.9414C226.605 31.1006 228.011 30.5699 229.051 29.5615V27.3324C228.167 28.6062 226.657 29.3492 225.096 29.2431Z" fill="white"></path><path d="M187.416 24.4131C188.561 24.0416 189.341 22.9802 189.237 21.7595C189.237 19.902 188.196 18.7344 185.178 18.7344H184.761C183.356 18.7874 182.003 19.212 180.806 19.902V22.6087C181.847 21.2288 183.46 20.4327 185.178 20.4327C186.687 20.4858 187.259 21.0165 187.259 22.131C187.259 23.4578 186.167 23.9886 184.709 23.9886H183.252V25.5807H185.022C186.895 25.5807 187.884 25.9523 187.884 27.2791C187.884 28.5528 186.687 29.2428 185.022 29.2428C183.304 29.402 181.691 28.6059 180.65 27.226L180.598 29.402C181.795 30.4634 183.356 30.9411 184.969 30.8349C187.624 30.8349 189.81 29.6673 189.81 27.0668C189.862 25.5807 189.029 24.7316 187.416 24.4131Z" fill="white"></path><path d="M169.2 27.7036V19.0527H167.223V30.6756H168.992L169.2 30.4103L175.654 21.9717V30.6756H177.632V19.0527H175.914L169.2 27.7036Z" fill="white"></path></g><defs><clipPath id="clip0"><rect width="229" height="38" fill="white"></rect></clipPath></defs></svg> 